<svg width="20" height="20" viewBox="0 0 20 20" fill="none" xmlns="http://www.w3.org/2000/svg">
<path fill-rule="evenodd" clip-rule="evenodd" d="M8.23043 12.6719C5.02709 12.6719 2.29126 13.156 2.29126 15.096C2.29126 17.036 5.01043 17.5377 8.23043 17.5377C11.4346 17.5377 14.1696 17.0527 14.1696 15.1135C14.1696 13.1744 11.4513 12.6719 8.23043 12.6719Z" stroke="#071726" stroke-width="1.5" stroke-linecap="round" stroke-linejoin="round"/>
<path fill-rule="evenodd" clip-rule="evenodd" d="M8.23042 9.90496C10.3329 9.90496 12.0371 8.20079 12.0371 6.09829C12.0371 3.99579 10.3329 2.29163 8.23042 2.29163C6.12875 2.29163 4.42459 3.99579 4.42459 6.09829C4.41709 8.19329 6.10875 9.89746 8.20459 9.90496H8.23042Z" stroke="#071726" stroke-width="1.5" stroke-linecap="round" stroke-linejoin="round"/>
<path d="M16.0031 7.22424V10.5659" stroke="#071726" stroke-width="1.5" stroke-linecap="round" stroke-linejoin="round"/>
<path d="M17.7079 8.89506H14.2996" stroke="#071726" stroke-width="1.5" stroke-linecap="round" stroke-linejoin="round"/>
</svg>
