<svg width="20" height="20" viewBox="0 0 20 20" fill="none" xmlns="http://www.w3.org/2000/svg">
<path d="M11.6668 8.75C11.6668 9.90059 9.80135 10.8333 7.50016 10.8333C5.19898 10.8333 3.3335 9.90059 3.3335 8.75C3.3335 7.59941 5.19898 6.66667 7.50016 6.66667C9.80135 6.66667 11.6668 7.59941 11.6668 8.75Z" fill="#071726"/>
<path d="M11.6668 8.75C11.6668 9.90059 9.80135 10.8333 7.50016 10.8333C5.19898 10.8333 3.3335 9.90059 3.3335 8.75M11.6668 8.75C11.6668 7.59941 9.80135 6.66667 7.50016 6.66667C5.19898 6.66667 3.3335 7.59941 3.3335 8.75M11.6668 8.75V15.8333C11.6668 16.7538 9.80135 17.5 7.50016 17.5C5.19898 17.5 3.3335 16.7538 3.3335 15.8333V8.75M11.6668 12.5C11.6668 13.4205 9.80135 14.1667 7.50016 14.1667C5.19898 14.1667 3.3335 13.4205 3.3335 12.5M16.6668 4.58333C16.6668 3.43274 14.8013 2.5 12.5002 2.5C10.8509 2.5 9.42546 2.9791 8.75016 3.67414M16.6668 4.58333C16.6668 5.35446 15.8289 6.02774 14.5835 6.38795M16.6668 4.58333V11.6667C16.6668 12.2836 15.8289 12.8222 14.5835 13.1104M16.6668 8.33333C16.6668 8.9639 15.7914 9.51269 14.5001 9.79581" stroke="#071726" stroke-width="1.5" stroke-linecap="round" stroke-linejoin="round"/>
<path d="M11.5 13.8682L3.80801 13.8682C3.97617 13.9618 3.44667 16.4384 3.63139 16.5154C5.46583 17.2897 11 17 11 17C11 17 12.6669 15.5948 11.5 13.8682Z" fill="#071726"/>
<path d="M11.4997 5.00004C12.5514 5.43606 13.3265 6.18352 14 7C14.0691 7.08467 14.2 6.56394 14.2481 6.46396C14.313 6.32468 16.4535 5.65222 16.4997 5.50004C16.9676 3.98841 16.8394 3.78451 15.4999 2.99991C13.5122 1.83629 9.08862 1.40834 8.4997 3.50004C8.43583 3.72687 8.39768 3.95078 8.38029 4.1746C8.37826 4.20537 8.38326 4.24066 8.40343 4.26328C8.4292 4.29256 8.47414 4.28912 8.50679 4.27629C9.4997 4.50004 10.3888 4.53951 11.4997 5.00004Z" fill="#071726"/>
<path d="M14.0001 9.49991L13.9999 13.4999C14.0649 13.3607 16.4641 12.6198 16.5103 12.4676C16.9782 10.956 16.5001 9.99993 16.5001 9.99993C16.5001 9.99993 15.4996 8.49984 14.0001 9.49991Z" fill="#071726"/>
</svg>
