<svg width="20" height="20" viewBox="0 0 20 20" fill="none" xmlns="http://www.w3.org/2000/svg">
<path d="M9.99951 1.54211C14.6711 1.54211 18.4583 5.32856 18.4585 10.0001C18.4585 14.6718 14.6712 18.4591 9.99951 18.4591C5.32795 18.4589 1.5415 14.6717 1.5415 10.0001C1.54168 5.32867 5.32806 1.54229 9.99951 1.54211ZM12.4761 13.0968C12.8317 13.3084 13.2923 13.1925 13.5044 12.837C13.7163 12.4816 13.5996 12.0211 13.2446 11.8087L12.4761 13.0968ZM9.71826 5.78918C9.30405 5.78918 8.96826 6.12497 8.96826 6.53918V10.5782C8.9683 10.8423 9.10768 11.0875 9.33447 11.2228L12.4761 13.0968L12.8599 12.4523L13.2446 11.8087L10.4683 10.1525V6.53918C10.4683 6.12513 10.1323 5.78945 9.71826 5.78918Z" fill="#071726"/>
</svg>
