<svg width="20" height="20" viewBox="0 0 20 20" fill="none" xmlns="http://www.w3.org/2000/svg">
<path d="M7.96143 3.46582C8.96444 1.96224 11.2334 2.01354 12.1509 3.61719L18.1392 14.0879L18.2212 14.2432C19.0057 15.8592 17.8323 17.7802 15.9976 17.7803H4.01123C2.11618 17.7799 0.928918 15.7315 1.86963 14.0869L7.86865 3.61621L7.96143 3.46582ZM9.99561 12.75C9.44358 12.7502 8.99573 13.198 8.99561 13.75C8.99578 14.302 9.44361 14.7498 9.99561 14.75H10.0044L10.1069 14.7441C10.6108 14.6926 11.0042 14.2674 11.0044 13.75C11.0043 13.2325 10.6108 12.8064 10.1069 12.7549L10.0044 12.75H9.99561ZM10.0024 7.8457C9.58832 7.84582 9.25244 8.18156 9.25244 8.5957V11.1787C9.25252 11.5928 9.58837 11.9286 10.0024 11.9287C10.4165 11.9285 10.7524 11.5928 10.7524 11.1787V8.5957C10.7524 8.1816 10.4165 7.84588 10.0024 7.8457Z" fill="#071726"/>
</svg>
