<svg width="20" height="20" viewBox="0 0 20 20" fill="none" xmlns="http://www.w3.org/2000/svg">
<path d="M11.6666 8.75C11.6666 9.90059 9.8011 10.8333 7.49992 10.8333C5.19873 10.8333 3.33325 9.90059 3.33325 8.75M11.6666 8.75C11.6666 7.59941 9.8011 6.66667 7.49992 6.66667C5.19873 6.66667 3.33325 7.59941 3.33325 8.75M11.6666 8.75V15.8333C11.6666 16.7538 9.80111 17.5 7.49992 17.5C5.19873 17.5 3.33325 16.7538 3.33325 15.8333V8.75M11.6666 12.5C11.6666 13.4205 9.80111 14.1667 7.49992 14.1667C5.19873 14.1667 3.33325 13.4205 3.33325 12.5M16.6666 4.58333C16.6666 3.43274 14.8011 2.5 12.4999 2.5C10.8507 2.5 9.42522 2.9791 8.74992 3.67414M16.6666 4.58333C16.6666 5.35446 15.8287 6.02774 14.5833 6.38795M16.6666 4.58333V11.6667C16.6666 12.2836 15.8287 12.8222 14.5833 13.1104M16.6666 8.33333C16.6666 8.9639 15.7911 9.51269 14.4999 9.79581" stroke="#071726" stroke-width="1.5" stroke-linecap="round" stroke-linejoin="round"/>
</svg>
