<svg width="24" height="24" viewBox="0 0 24 24" fill="none" xmlns="http://www.w3.org/2000/svg">
<path fill-rule="evenodd" clip-rule="evenodd" d="M4.07952 10.9603L5.50879 9.83597C5.9204 9.52805 6.50364 9.61182 6.81196 10.0231L12.6994 17.5074C13.0265 17.9039 12.9706 18.4905 12.5744 18.818L11.1452 19.9423C10.7335 20.2502 10.1503 20.1665 9.84198 19.7552L8.66467 18.2585L6.62238 19.8651C6.21077 20.173 5.62753 20.0892 5.31921 19.6779L2.96459 16.6847C2.63745 16.2882 2.69338 15.7016 3.08957 15.3741L5.13186 13.7675L3.95455 12.2709C3.6274 11.8744 3.68334 11.2878 4.07952 10.9603Z" stroke="#071726" stroke-width="1.5" stroke-linecap="round" stroke-linejoin="round"/>
<path fill-rule="evenodd" clip-rule="evenodd" d="M19.9228 13.0374L18.4935 14.1617C18.0819 14.4696 17.4987 14.3859 17.1904 13.9746L11.3029 6.49029C10.9758 6.09379 11.0317 5.50723 11.4279 5.1797L12.8572 4.05538C13.2688 3.74747 13.852 3.83123 14.1603 4.24254L15.3376 5.73917L17.3788 4.13351C17.5764 3.98519 17.8249 3.92148 18.0695 3.95642C18.3142 3.99135 18.5349 4.12207 18.6831 4.31979L21.0377 7.31305C21.3649 7.70955 21.3089 8.29612 20.9127 8.62364L18.8705 10.2302L20.0478 11.7268C20.3749 12.1233 20.319 12.7099 19.9228 13.0374Z" stroke="#071726" stroke-width="1.5" stroke-linecap="round" stroke-linejoin="round"/>
<path d="M8.07518 18.7223C8.33127 19.0479 8.8028 19.1042 9.12835 18.8481C9.45391 18.592 9.51022 18.1204 9.25412 17.7949L8.07518 18.7223ZM5.72131 13.3039C5.46521 12.9783 4.99369 12.922 4.66813 13.1781C4.34258 13.4342 4.28627 13.9057 4.54236 14.2313L5.72131 13.3039ZM15.9282 5.27474C15.6721 4.94918 15.2006 4.89287 14.875 5.14897C14.5494 5.40507 14.4931 5.87659 14.7492 6.20215L15.9282 5.27474ZM18.282 10.6932C18.5381 11.0187 19.0097 11.075 19.3352 10.8189C19.6608 10.5628 19.7171 10.0913 19.461 9.76575L18.282 10.6932ZM9.29169 13.1765C8.96613 13.4326 8.90982 13.9041 9.16592 14.2296C9.42201 14.5552 9.89354 14.6115 10.2191 14.3554L9.29169 13.1765ZM14.7101 10.8226C15.0357 10.5665 15.092 10.095 14.8359 9.76942C14.5798 9.44386 14.1083 9.38755 13.7827 9.64365L14.7101 10.8226ZM8.66465 18.2586L9.25412 17.7949L5.72131 13.3039L5.13184 13.7676L4.54236 14.2313L8.07518 18.7223L8.66465 18.2586ZM15.3387 5.73844L14.7492 6.20215L18.282 10.6932L18.8715 10.2295L19.461 9.76575L15.9282 5.27474L15.3387 5.73844ZM9.75539 13.7659L10.2191 14.3554L14.7101 10.8226L14.2464 10.2331L13.7827 9.64365L9.29169 13.1765L9.75539 13.7659Z" fill="#071726"/>
</svg>
