<svg width="20" height="20" viewBox="0 0 20 20" fill="none" xmlns="http://www.w3.org/2000/svg">
<path fill-rule="evenodd" clip-rule="evenodd" d="M3.39952 9.13357L4.59057 8.19664C4.93358 7.94005 5.41962 8.00985 5.67655 8.35261L10.5827 14.5895C10.8554 14.9199 10.8088 15.4087 10.4786 15.6817L9.28754 16.6186C8.94454 16.8752 8.4585 16.8054 8.20157 16.4626L7.22048 15.2154L5.51857 16.5542C5.17556 16.8108 4.68953 16.741 4.4326 16.3983L2.47041 13.9039C2.19779 13.5735 2.24441 13.0847 2.57456 12.8117L4.27647 11.4729L3.29537 10.2257C3.02276 9.89532 3.06937 9.40651 3.39952 9.13357Z" stroke="#071726" stroke-width="1.5" stroke-linecap="round" stroke-linejoin="round"/>
<path fill-rule="evenodd" clip-rule="evenodd" d="M16.6025 10.8645L15.4115 11.8015C15.0685 12.0581 14.5824 11.9883 14.3255 11.6455L9.41931 5.4086C9.14669 5.07818 9.1933 4.58938 9.52345 4.31644L10.7145 3.37951C11.0575 3.12291 11.5436 3.19271 11.8005 3.53547L12.7816 4.78266L14.4825 3.44461C14.6472 3.32101 14.8543 3.26792 15.0582 3.29704C15.262 3.32615 15.4459 3.43508 15.5695 3.59984L17.5316 6.09423C17.8043 6.42464 17.7576 6.91345 17.4275 7.18639L15.7256 8.52518L16.7067 9.77237C16.9793 10.1028 16.9327 10.5916 16.6025 10.8645Z" stroke="#071726" stroke-width="1.5" stroke-linecap="round" stroke-linejoin="round"/>
<path d="M6.63091 15.6791C6.887 16.0047 7.35853 16.061 7.68408 15.8049C8.00964 15.5488 8.06595 15.0773 7.80985 14.7517L6.63091 15.6791ZM4.86584 11.0092C4.60974 10.6836 4.13822 10.6273 3.81266 10.8834C3.48711 11.1395 3.4308 11.611 3.68689 11.9366L4.86584 11.0092ZM13.3716 4.31825C13.1155 3.99269 12.6439 3.93638 12.3184 4.19248C11.9928 4.44858 11.9365 4.9201 12.1926 5.24566L13.3716 4.31825ZM15.1366 8.98817C15.3927 9.31373 15.8642 9.37004 16.1898 9.11394C16.5154 8.85784 16.5717 8.38632 16.3156 8.06076L15.1366 8.98817ZM7.66562 10.8821C7.34007 11.1382 7.28376 11.6097 7.53985 11.9352C7.79595 12.2608 8.26747 12.3171 8.59303 12.061L7.66562 10.8821ZM12.3355 9.11699C12.6611 8.8609 12.7174 8.38937 12.4613 8.06381C12.2052 7.73826 11.7337 7.68195 11.4081 7.93804L12.3355 9.11699ZM7.22038 15.2154L7.80985 14.7517L4.86584 11.0092L4.27637 11.4729L3.68689 11.9366L6.63091 15.6791L7.22038 15.2154ZM12.7821 4.78195L12.1926 5.24566L15.1366 8.98817L15.7261 8.52447L16.3156 8.06076L13.3716 4.31825L12.7821 4.78195ZM8.12933 11.4715L8.59303 12.061L12.3355 9.11699L11.8718 8.52752L11.4081 7.93804L7.66562 10.8821L8.12933 11.4715Z" fill="#071726"/>
</svg>
