<svg width="71" height="24" viewBox="0 0 71 24" fill="none" xmlns="http://www.w3.org/2000/svg">
<path fill-rule="evenodd" clip-rule="evenodd" d="M11.9999 5.3335C8.31802 5.3335 5.33325 8.31826 5.33325 12.0002C5.33325 15.6821 8.31802 18.6668 11.9999 18.6668C15.6818 18.6668 18.6666 15.6821 18.6666 12.0002C18.6666 8.31826 15.6818 5.3335 11.9999 5.3335ZM12.2974 8.13282C12.3494 8.19854 12.3264 8.38268 12.2803 8.75097L11.9993 10.9995H13.9427C14.4455 10.9995 14.697 10.9995 14.832 11.1038C14.9496 11.1946 15.0207 11.3329 15.0261 11.4814C15.0323 11.6518 14.8859 11.8563 14.5931 12.2652L12.2959 15.474C12.0799 15.7758 11.9718 15.9267 11.8891 15.9397C11.8177 15.951 11.7459 15.9229 11.7011 15.8662C11.6491 15.8005 11.6722 15.6163 11.7182 15.2481L11.9993 12.9995H10.0559C9.55299 12.9995 9.30154 12.9995 9.16652 12.8952C9.04897 12.8044 8.97787 12.6661 8.97248 12.5177C8.96628 12.3472 9.11265 12.1427 9.40539 11.7338L11.7026 8.525C11.9187 8.22321 12.0267 8.07232 12.1095 8.05929C12.1808 8.04807 12.2526 8.07617 12.2974 8.13282Z" fill="#071726"/>
<rect width="2.18182" height="2.18182" rx="1.09091" transform="matrix(-1 0 0 1 13.0903 0)" fill="#071726"/>
<rect width="2.18182" height="2.18182" rx="1.09091" transform="matrix(-1 0 0 1 13.0903 21.8181)" fill="#071726"/>
<rect width="2.18182" height="2.18182" rx="1.09091" transform="matrix(-1 0 0 1 5.45361 18.5454)" fill="#071726"/>
<rect width="2.18182" height="2.18182" rx="1.09091" transform="matrix(-1 0 0 1 20.7273 18.5454)" fill="#071726"/>
<rect width="2.18182" height="2.18182" rx="1.09091" transform="matrix(-1 0 0 1 20.7273 3.27271)" fill="#071726"/>
<rect width="2.18182" height="2.18182" rx="1.09091" transform="matrix(-1 0 0 1 5.45361 3.27271)" fill="#071726"/>
<rect width="2.18182" height="2.18182" rx="1.09091" transform="matrix(-1 0 0 1 2.18188 10.9095)" fill="#071726"/>
<rect width="2.18182" height="2.18182" rx="1.09091" transform="matrix(-1 0 0 1 23.999 10.9095)" fill="#071726"/>
<path d="M11.9994 1.09058L4.36306 4.3633L1.09033 11.9997L4.36306 19.636L11.9994 22.9088L19.6358 19.636L22.9085 11.9997L19.6358 4.3633L11.9994 1.09058Z" stroke="#071726" stroke-linecap="round"/>
<path d="M11.9989 2.00037V4.00037M19.3323 4.66703L17.9989 6.00037M22.6656 12.0004H19.9989M19.3323 19.3337L17.9989 18.0004M11.9989 22.667V20.0004M4.66561 19.3337L6.66561 18.0004M1.33228 12.0004H3.99894M4.66561 4.66703L5.99894 6.00037" stroke="#071726" stroke-linecap="round"/>
<path d="M66.1143 9.92529V18.7437H64.1455V8.50342H65.9707L66.1143 9.92529ZM70.7969 12.1196V12.2632C70.7969 12.8009 70.7331 13.3 70.6055 13.7603C70.4824 14.2205 70.3001 14.6216 70.0586 14.9634C69.8171 15.3006 69.5163 15.5649 69.1562 15.7563C68.8008 15.9432 68.3906 16.0366 67.9258 16.0366C67.4746 16.0366 67.0827 15.9455 66.75 15.7632C66.4173 15.5809 66.137 15.3257 65.9092 14.9976C65.6859 14.6649 65.5059 14.2798 65.3691 13.8423C65.2324 13.4048 65.1276 12.9354 65.0547 12.4341V12.0581C65.1276 11.5203 65.2324 11.0282 65.3691 10.5815C65.5059 10.1304 65.6859 9.74072 65.9092 9.4126C66.137 9.07992 66.415 8.82243 66.7432 8.64014C67.0758 8.45785 67.4655 8.3667 67.9121 8.3667C68.3815 8.3667 68.7939 8.45557 69.1494 8.6333C69.5094 8.81104 69.8102 9.06624 70.0518 9.39893C70.2979 9.73161 70.4824 10.1281 70.6055 10.5884C70.7331 11.0487 70.7969 11.5591 70.7969 12.1196ZM68.8213 12.2632V12.1196C68.8213 11.8052 68.7939 11.5158 68.7393 11.2515C68.6891 10.9826 68.6071 10.7479 68.4932 10.5474C68.3838 10.3468 68.238 10.1919 68.0557 10.0825C67.8779 9.96859 67.6615 9.91162 67.4062 9.91162C67.1374 9.91162 66.9072 9.95492 66.7158 10.0415C66.529 10.1281 66.3763 10.2534 66.2578 10.4175C66.1393 10.5815 66.0505 10.7775 65.9912 11.0054C65.932 11.2332 65.8955 11.4907 65.8818 11.7778V12.728C65.9046 13.0653 65.9684 13.3683 66.0732 13.6372C66.1781 13.9015 66.3398 14.1112 66.5586 14.2661C66.7773 14.4211 67.0645 14.4985 67.4199 14.4985C67.6797 14.4985 67.8984 14.4416 68.0762 14.3276C68.2539 14.2091 68.3975 14.0474 68.5068 13.8423C68.6208 13.6372 68.7005 13.4002 68.7461 13.1313C68.7962 12.8625 68.8213 12.5731 68.8213 12.2632Z" fill="#071726"/>
<path d="M60.5361 5.94678H62.5801V12.5229C62.5801 13.2886 62.416 13.9334 62.0879 14.4575C61.7643 14.9816 61.3154 15.3758 60.7412 15.6401C60.1715 15.9045 59.5153 16.0366 58.7725 16.0366C58.0296 16.0366 57.3688 15.9045 56.79 15.6401C56.2158 15.3758 55.7646 14.9816 55.4365 14.4575C55.113 13.9334 54.9512 13.2886 54.9512 12.5229V5.94678H57.002V12.5229C57.002 12.9696 57.0726 13.3341 57.2139 13.6167C57.3551 13.8993 57.5579 14.1066 57.8223 14.2388C58.0911 14.3709 58.4079 14.437 58.7725 14.437C59.1462 14.437 59.4629 14.3709 59.7227 14.2388C59.987 14.1066 60.1875 13.8993 60.3242 13.6167C60.4655 13.3341 60.5361 12.9696 60.5361 12.5229V5.94678Z" fill="#071726"/>
<path d="M53.7959 8.50342V9.89795H49.4893V8.50342H53.7959ZM50.5557 6.67822H52.5244V13.6714C52.5244 13.8856 52.5518 14.0496 52.6064 14.1636C52.6657 14.2775 52.7523 14.3573 52.8662 14.4028C52.9801 14.4438 53.1237 14.4644 53.2969 14.4644C53.4199 14.4644 53.5293 14.4598 53.625 14.4507C53.7253 14.437 53.8096 14.4233 53.8779 14.4097L53.8848 15.8589C53.7161 15.9136 53.5339 15.9569 53.3379 15.9888C53.1419 16.0207 52.9255 16.0366 52.6885 16.0366C52.2555 16.0366 51.8773 15.966 51.5537 15.8247C51.2347 15.6789 50.9886 15.4465 50.8154 15.1274C50.6423 14.8084 50.5557 14.3892 50.5557 13.8696V6.67822Z" fill="#071726"/>
<path d="M47.6641 15.8999H45.6816V7.84717C45.6816 7.28662 45.791 6.81494 46.0098 6.43213C46.2331 6.04476 46.5452 5.75309 46.9463 5.55713C47.3519 5.35661 47.8327 5.25635 48.3887 5.25635C48.571 5.25635 48.7464 5.27002 48.915 5.29736C49.0837 5.32015 49.2477 5.34977 49.4072 5.38623L49.3867 6.86963C49.3001 6.84684 49.209 6.83089 49.1133 6.82178C49.0176 6.81266 48.9059 6.80811 48.7783 6.80811C48.5413 6.80811 48.3385 6.84912 48.1699 6.93115C48.0059 7.00863 47.8805 7.12484 47.7939 7.27979C47.7074 7.43473 47.6641 7.62386 47.6641 7.84717V15.8999ZM49.1406 8.50342V9.89795H44.5811V8.50342H49.1406Z" fill="#071726"/>
<path d="M43.5283 8.50342V15.8999H41.5527V8.50342H43.5283ZM41.4297 6.57568C41.4297 6.28857 41.5299 6.0516 41.7305 5.86475C41.931 5.6779 42.1999 5.58447 42.5371 5.58447C42.8698 5.58447 43.1364 5.6779 43.3369 5.86475C43.542 6.0516 43.6445 6.28857 43.6445 6.57568C43.6445 6.86279 43.542 7.09977 43.3369 7.28662C43.1364 7.47347 42.8698 7.56689 42.5371 7.56689C42.1999 7.56689 41.931 7.47347 41.7305 7.28662C41.5299 7.09977 41.4297 6.86279 41.4297 6.57568Z" fill="#071726"/>
<path d="M40.3975 14.3003V15.8999H35.3867V14.3003H40.3975ZM36.0498 5.94678V15.8999H33.999V5.94678H36.0498Z" fill="#071726"/>
</svg>
