<svg width="126" height="80" viewBox="0 0 126 80" fill="none" xmlns="http://www.w3.org/2000/svg">
<rect opacity="0.4" x="20.75" width="80" height="80" rx="40" fill="#071726"/>
<rect opacity="0.7" x="27.875" y="7" width="66" height="66" rx="33" fill="#071726"/>
<rect x="34.875" y="14" width="52" height="52" rx="26" fill="#071726"/>
<path d="M46.875 53.96H74.875V25.96H46.875V53.96Z" fill="#071726"/>
<path d="M119.032 19.2119L119.862 20.9982C119.885 21.0449 119.918 21.0853 119.958 21.1161C119.999 21.147 120.045 21.1673 120.095 21.1755L121.988 21.461C122.044 21.4697 122.097 21.4947 122.141 21.5332C122.185 21.5716 122.217 21.622 122.235 21.6786C122.253 21.7352 122.255 21.7959 122.241 21.8537C122.228 21.9115 122.199 21.9643 122.158 22.006L120.788 23.3987C120.752 23.4353 120.726 23.4804 120.711 23.5302C120.695 23.5799 120.692 23.6328 120.701 23.6842L121.025 25.6478C121.035 25.7071 121.029 25.7681 121.007 25.8238C120.985 25.8795 120.949 25.9278 120.902 25.963C120.855 25.9982 120.8 26.019 120.742 26.0229C120.685 26.0268 120.627 26.0138 120.576 25.9852L118.899 25.0683C118.855 25.0447 118.806 25.0324 118.756 25.0324C118.706 25.0324 118.657 25.0447 118.613 25.0683L116.919 25.9939C116.869 26.0224 116.811 26.0355 116.753 26.0315C116.696 26.0276 116.64 26.0068 116.594 25.9716C116.547 25.9364 116.511 25.8882 116.489 25.8324C116.467 25.7767 116.461 25.7157 116.471 25.6565L116.795 23.6928C116.803 23.6415 116.799 23.5888 116.784 23.5392C116.769 23.4895 116.743 23.4444 116.708 23.4074L115.342 22.006C115.301 21.9643 115.272 21.9115 115.259 21.8537C115.245 21.7959 115.247 21.7352 115.265 21.6786C115.283 21.622 115.315 21.5716 115.359 21.5332C115.403 21.4947 115.456 21.4697 115.512 21.461L117.417 21.1755C117.467 21.1673 117.514 21.147 117.554 21.1161C117.595 21.0853 117.628 21.0449 117.65 20.9982L118.48 19.2119C118.505 19.158 118.545 19.1126 118.593 19.0808C118.642 19.0491 118.699 19.0322 118.756 19.0322C118.814 19.0322 118.87 19.0491 118.919 19.0808C118.968 19.1126 119.007 19.158 119.032 19.2119Z" fill="white"/>
<path d="M17.3465 59.2345L17.4216 60.0754C17.4239 60.0975 17.4312 60.1185 17.4431 60.1368C17.4549 60.1551 17.4708 60.1702 17.4896 60.1807L18.2113 60.5708C18.2328 60.5826 18.2506 60.6004 18.2626 60.6222C18.2746 60.644 18.2804 60.6691 18.2793 60.6945C18.2782 60.7199 18.2702 60.7446 18.2563 60.766C18.2425 60.7873 18.2232 60.8044 18.2007 60.8153L17.446 61.1777C17.4263 61.1873 17.409 61.2016 17.3956 61.2195C17.3822 61.2373 17.3732 61.2582 17.3694 61.2802L17.2145 62.1189C17.21 62.1443 17.1986 62.168 17.1818 62.1873C17.1649 62.2066 17.1433 62.2208 17.1193 62.2282C17.0953 62.2356 17.07 62.2359 17.0462 62.2291C17.0224 62.2223 17.0011 62.2087 16.9848 62.1898L16.4419 61.5764C16.4274 61.5604 16.4094 61.5484 16.3893 61.5411C16.3693 61.5339 16.3477 61.5317 16.3264 61.5348L15.509 61.6618C15.4844 61.6659 15.4593 61.6629 15.4367 61.6529C15.414 61.6429 15.3947 61.6265 15.3809 61.6055C15.3672 61.5845 15.3596 61.5598 15.3589 61.5342C15.3583 61.5086 15.3646 61.4831 15.3773 61.4606L15.7932 60.716C15.804 60.6965 15.8102 60.6747 15.8113 60.6525C15.8124 60.6303 15.8084 60.6083 15.7995 60.5882L15.4526 59.8248C15.4422 59.802 15.4382 59.7766 15.4412 59.7513C15.4441 59.726 15.4538 59.7018 15.4692 59.6816C15.4845 59.6613 15.5049 59.6457 15.5281 59.6366C15.5513 59.6274 15.5763 59.6251 15.6004 59.6298L16.4101 59.7916C16.4312 59.7954 16.4531 59.794 16.4739 59.7875C16.4946 59.7809 16.5137 59.7694 16.5296 59.7538L17.1239 59.1543C17.1419 59.1362 17.1643 59.1236 17.1886 59.1179C17.2129 59.1122 17.2381 59.1136 17.2613 59.122C17.2845 59.1303 17.3048 59.1453 17.3199 59.1652C17.3349 59.1851 17.3441 59.2091 17.3465 59.2345Z" fill="white"/>
<path d="M125.109 39.306L124.897 40.4168C124.891 40.4453 124.892 40.4749 124.9 40.5029C124.908 40.5308 124.923 40.5562 124.943 40.5767L125.7 41.3893C125.723 41.4135 125.739 41.4439 125.746 41.4769C125.753 41.5099 125.751 41.5444 125.74 41.5763C125.729 41.6082 125.71 41.6363 125.685 41.6575C125.659 41.6787 125.629 41.6921 125.596 41.6962L124.514 41.8302C124.486 41.8341 124.459 41.8447 124.435 41.8611C124.411 41.8776 124.391 41.8996 124.377 41.9252L123.869 42.928C123.855 42.9592 123.833 42.9855 123.805 43.004C123.777 43.0224 123.744 43.0322 123.711 43.0322C123.678 43.0322 123.645 43.0224 123.617 43.004C123.589 42.9855 123.567 42.9592 123.553 42.928L123.099 41.8993C123.087 41.8724 123.07 41.8489 123.047 41.8309C123.025 41.8128 122.998 41.8007 122.97 41.7956L121.896 41.6011C121.864 41.5956 121.834 41.5809 121.81 41.5586C121.785 41.5363 121.767 41.5074 121.758 41.475C121.748 41.4426 121.747 41.4082 121.756 41.3754C121.764 41.3427 121.781 41.3131 121.805 41.2899L122.608 40.5205C122.629 40.5004 122.645 40.4754 122.654 40.4475C122.664 40.4197 122.666 40.3898 122.662 40.3606L122.508 39.2411C122.503 39.2075 122.508 39.1732 122.52 39.142C122.533 39.1108 122.555 39.084 122.581 39.0646C122.608 39.0452 122.64 39.0341 122.673 39.0324C122.705 39.0308 122.738 39.0387 122.766 39.0553L123.719 39.6085C123.744 39.6225 123.772 39.6298 123.801 39.6298C123.829 39.6298 123.857 39.6225 123.882 39.6085L124.86 39.1071C124.889 39.0935 124.922 39.0884 124.954 39.0923C124.986 39.0962 125.016 39.109 125.042 39.1294C125.067 39.1497 125.087 39.1769 125.099 39.208C125.111 39.2391 125.114 39.2729 125.109 39.306Z" fill="#071726"/>
<path d="M3.35942 42.306L3.14716 43.4168C3.14118 43.4453 3.14226 43.4749 3.15026 43.5029C3.15827 43.5308 3.17294 43.5562 3.19294 43.5767L3.95041 44.3893C3.97314 44.4135 3.98889 44.4439 3.9959 44.4769C4.00291 44.5099 4.0009 44.5444 3.99008 44.5763C3.97927 44.6082 3.96008 44.6363 3.93468 44.6575C3.90929 44.6787 3.87869 44.6921 3.84636 44.6962L2.76428 44.8302C2.73591 44.8341 2.70878 44.8447 2.68497 44.8611C2.66116 44.8776 2.6413 44.8996 2.62693 44.9252L2.11919 45.928C2.10506 45.9592 2.08267 45.9855 2.05467 46.004C2.02666 46.0224 1.9942 46.0322 1.96104 46.0322C1.92787 46.0322 1.89538 46.0224 1.86738 46.004C1.83937 45.9855 1.81701 45.9592 1.80288 45.928L1.34922 44.8993C1.33746 44.8724 1.31958 44.8489 1.2971 44.8309C1.27462 44.8128 1.24821 44.8007 1.22021 44.7956L0.146457 44.6011C0.114304 44.5956 0.0842611 44.5809 0.059734 44.5586C0.0352068 44.5363 0.017156 44.5074 0.00763414 44.475C-0.00188774 44.4426 -0.00251767 44.4082 0.00583059 44.3754C0.0141788 44.3427 0.0311755 44.3131 0.0548822 44.2899L0.858124 43.5205C0.87899 43.5004 0.894826 43.4754 0.904254 43.4475C0.913683 43.4197 0.916421 43.3898 0.912231 43.3606L0.758243 42.2411C0.75331 42.2075 0.757549 42.1732 0.770487 42.142C0.783424 42.1108 0.804542 42.084 0.831426 42.0646C0.858311 42.0452 0.88989 42.0341 0.922569 42.0324C0.955248 42.0308 0.987714 42.0387 1.01628 42.0553L1.96934 42.6085C1.99427 42.6225 2.02216 42.6298 2.0505 42.6298C2.07884 42.6298 2.10673 42.6225 2.13166 42.6085L3.10972 42.1071C3.13915 42.0935 3.17157 42.0884 3.20358 42.0923C3.23559 42.0962 3.26597 42.109 3.29155 42.1294C3.31713 42.1497 3.33694 42.1769 3.34888 42.208C3.36083 42.2391 3.36447 42.2729 3.35942 42.306Z" fill="#071726"/>
<path d="M112.076 14.1208L111.562 14.3542C111.548 14.3601 111.536 14.3693 111.527 14.3808C111.518 14.3923 111.513 14.4057 111.511 14.42L111.421 14.9591C111.418 14.9752 111.411 14.9902 111.399 15.0024C111.388 15.0146 111.373 15.0236 111.357 15.0284C111.341 15.0331 111.323 15.0335 111.307 15.0294C111.29 15.0253 111.275 15.0169 111.264 15.0051L110.873 14.6106C110.863 14.5996 110.851 14.5913 110.837 14.5867C110.823 14.582 110.808 14.5812 110.794 14.5843L110.231 14.6698C110.214 14.6722 110.197 14.6701 110.182 14.6637C110.166 14.6574 110.152 14.647 110.142 14.6338C110.132 14.6205 110.127 14.6049 110.125 14.5887C110.124 14.5724 110.127 14.5561 110.135 14.5416L110.406 14.0616C110.413 14.0489 110.416 14.0348 110.416 14.0205C110.416 14.0063 110.413 13.9922 110.406 13.9794L110.145 13.4929C110.138 13.4782 110.136 13.462 110.137 13.4459C110.139 13.4298 110.146 13.4145 110.156 13.4016C110.166 13.3888 110.18 13.3788 110.195 13.3729C110.211 13.367 110.228 13.3653 110.245 13.368L110.804 13.4666C110.819 13.4694 110.834 13.4688 110.848 13.4648C110.862 13.4608 110.876 13.4535 110.886 13.4436L111.288 13.0557C111.3 13.0447 111.315 13.0372 111.332 13.034C111.348 13.0308 111.365 13.0319 111.381 13.0374C111.397 13.0428 111.411 13.0522 111.422 13.0647C111.433 13.0772 111.44 13.0923 111.442 13.1083L111.517 13.6474C111.519 13.6616 111.525 13.6752 111.533 13.6872C111.541 13.6991 111.553 13.7091 111.565 13.7164L112.073 13.963C112.088 13.9702 112.101 13.9812 112.11 13.995C112.12 14.0087 112.125 14.0246 112.125 14.0409C112.125 14.0572 112.121 14.0733 112.112 14.0874C112.104 14.1015 112.091 14.113 112.076 14.1208Z" fill="#071726"/>
<path d="M110.052 66.6651L109.28 67.0152C109.26 67.0241 109.242 67.0378 109.229 67.055C109.215 67.0723 109.207 67.0925 109.203 67.1138L109.07 67.9225C109.065 67.9467 109.054 67.9692 109.037 67.9875C109.02 68.0058 108.998 68.0193 108.973 68.0265C108.949 68.0336 108.923 68.0341 108.898 68.028C108.873 68.0218 108.851 68.0092 108.833 67.9916L108.246 67.3998C108.232 67.3833 108.214 67.3708 108.193 67.3639C108.172 67.3569 108.15 67.3557 108.128 67.3604L107.284 67.4886C107.259 67.4922 107.233 67.489 107.21 67.4795C107.186 67.47 107.166 67.4544 107.151 67.4345C107.136 67.4147 107.127 67.3913 107.125 67.3669C107.123 67.3425 107.129 67.3181 107.14 67.2963L107.547 66.5763C107.557 66.5572 107.562 66.5361 107.562 66.5147C107.562 66.4933 107.557 66.4722 107.547 66.453L107.156 65.7232C107.145 65.7012 107.141 65.6768 107.144 65.6527C107.146 65.6286 107.156 65.6056 107.171 65.5863C107.187 65.567 107.207 65.5521 107.231 65.5432C107.254 65.5343 107.28 65.5318 107.305 65.5358L108.143 65.6838C108.165 65.688 108.188 65.687 108.21 65.681C108.231 65.675 108.251 65.6641 108.267 65.6493L108.869 65.0674C108.888 65.051 108.91 65.0397 108.935 65.0349C108.96 65.0301 108.986 65.0318 109.009 65.0399C109.033 65.048 109.054 65.0622 109.07 65.081C109.086 65.0997 109.097 65.1223 109.1 65.1463L109.214 65.955C109.217 65.9763 109.225 65.9967 109.237 66.0147C109.25 66.0326 109.266 66.0476 109.286 66.0585L110.047 66.4284C110.07 66.4391 110.089 66.4557 110.103 66.4763C110.117 66.4969 110.124 66.5208 110.125 66.5452C110.126 66.5697 110.119 66.5938 110.106 66.6149C110.093 66.6361 110.075 66.6534 110.052 66.6651Z" fill="#071726"/>
<path d="M13.6271 12.4495L13.25 14.1151C13.2411 14.1589 13.244 14.2039 13.2582 14.2465C13.2725 14.2891 13.2978 14.3281 13.3321 14.3604L14.6617 15.5784C14.7021 15.6147 14.7301 15.6604 14.7427 15.7102C14.7552 15.76 14.7516 15.812 14.7324 15.8601C14.7132 15.9082 14.6792 15.9505 14.6342 15.9822C14.5891 16.0138 14.535 16.0335 14.478 16.039L12.5828 16.2369C12.5341 16.2422 12.4876 16.2579 12.4472 16.2826C12.4068 16.3074 12.3737 16.3404 12.3507 16.379L11.4563 17.881C11.4311 17.9264 11.3922 17.9646 11.3439 17.9913C11.2956 18.0181 11.2399 18.0322 11.1831 18.0322C11.1262 18.0322 11.0705 18.0181 11.0223 17.9913C10.974 17.9646 10.9351 17.9264 10.9099 17.881L10.1122 16.3402C10.0918 16.2996 10.0604 16.2641 10.0207 16.2371C9.98102 16.21 9.93435 16.1922 9.88496 16.1853L8.00424 15.8969C7.94763 15.8878 7.89501 15.8648 7.85227 15.8305C7.80953 15.7962 7.7784 15.752 7.76233 15.7028C7.74626 15.6537 7.74589 15.6015 7.76129 15.5521C7.7767 15.5028 7.80725 15.4582 7.84953 15.4235L9.25161 14.2744C9.28811 14.2439 9.31592 14.2062 9.33273 14.1643C9.34955 14.1223 9.3549 14.0775 9.34831 14.0333L9.0969 12.3419C9.08883 12.2919 9.09662 12.2409 9.11938 12.1946C9.14215 12.1483 9.17899 12.1086 9.22573 12.08C9.27248 12.0514 9.32728 12.0349 9.38396 12.0325C9.44064 12.0301 9.49694 12.0419 9.54653 12.0665L11.2145 12.8971C11.2587 12.9171 11.3076 12.9276 11.3571 12.9276C11.4067 12.9276 11.4556 12.9171 11.4998 12.8971L13.1919 12.1697C13.2414 12.1483 13.2966 12.1392 13.3514 12.1434C13.4063 12.1477 13.4589 12.1651 13.5035 12.1938C13.5481 12.2225 13.5832 12.2614 13.6049 12.3064C13.6267 12.3515 13.6343 12.4009 13.6271 12.4495Z" fill="#071726"/>
</svg>
