<svg width="20" height="20" viewBox="0 0 20 20" fill="none" xmlns="http://www.w3.org/2000/svg">
<path fill-rule="evenodd" clip-rule="evenodd" d="M12.8843 2.5H7.11574C5.88476 2.5068 4.70691 3.00234 3.8413 3.8776C2.97569 4.75287 2.49323 5.93615 2.50007 7.16714V12.8329C2.49323 14.0638 2.97569 15.2471 3.8413 16.1224C4.70691 16.9977 5.88476 17.4932 7.11574 17.5H12.8843C14.1152 17.4932 15.2931 16.9977 16.1587 16.1224C17.0243 15.2471 17.5068 14.0638 17.4999 12.8329V7.16714C17.5068 5.93615 17.0243 4.75287 16.1587 3.8776C15.2931 3.00234 14.1152 2.5068 12.8843 2.5Z" stroke="#071726" stroke-width="1.5" stroke-linecap="round" stroke-linejoin="round"/>
<path d="M6.25 7.14062C5.83579 7.14062 5.5 7.47641 5.5 7.89062C5.5 8.30484 5.83579 8.64062 6.25 8.64062V7.14062ZM10 8.64062C10.4142 8.64062 10.75 8.30484 10.75 7.89062C10.75 7.47641 10.4142 7.14062 10 7.14062V8.64062ZM9.25 7.89062C9.25 8.30484 9.58579 8.64062 10 8.64062C10.4142 8.64062 10.75 8.30484 10.75 7.89062H9.25ZM10.75 6.25C10.75 5.83579 10.4142 5.5 10 5.5C9.58579 5.5 9.25 5.83579 9.25 6.25H10.75ZM10 7.14062C9.58579 7.14062 9.25 7.47641 9.25 7.89062C9.25 8.30484 9.58579 8.64062 10 8.64062V7.14062ZM13.2812 8.64062C13.6955 8.64062 14.0312 8.30484 14.0312 7.89062C14.0312 7.47641 13.6955 7.14062 13.2812 7.14062V8.64062ZM13.2812 7.14062C12.867 7.14062 12.5312 7.47641 12.5312 7.89062C12.5312 8.30484 12.867 8.64062 13.2812 8.64062V7.14062ZM13.75 8.64062C14.1642 8.64062 14.5 8.30484 14.5 7.89062C14.5 7.47641 14.1642 7.14062 13.75 7.14062V8.64062ZM13.8947 8.32177C14.1329 7.98284 14.0511 7.51506 13.7122 7.27694C13.3733 7.03882 12.9055 7.12055 12.6674 7.45948L13.8947 8.32177ZM9.28844 11.1627C8.97269 11.4307 8.93405 11.904 9.20214 12.2198C9.47024 12.5356 9.94354 12.5742 10.2593 12.3061L9.28844 11.1627ZM7.44024 12.6815C7.10903 12.9302 7.04217 13.4004 7.29092 13.7316C7.53966 14.0628 8.0098 14.1297 8.34101 13.8809L7.44024 12.6815ZM10.2718 12.2916C10.5817 12.0167 10.61 11.5427 10.3351 11.2328C10.0602 10.923 9.58617 10.8947 9.27632 11.1695L10.2718 12.2916ZM9.18408 12.1937C9.43982 12.5195 9.91128 12.5763 10.2371 12.3206C10.563 12.0649 10.6198 11.5934 10.364 11.2676L9.18408 12.1937ZM9.27967 9.46229C9.11214 9.08347 8.66924 8.91218 8.29042 9.0797C7.91159 9.24723 7.7403 9.69014 7.90783 10.069L9.27967 9.46229ZM10.3757 11.2868C10.1285 10.9544 9.65863 10.8854 9.32627 11.1326C8.9939 11.3798 8.92487 11.8496 9.17207 12.182L10.3757 11.2868ZM11.7543 14.4107C12.1193 14.6067 12.574 14.4697 12.7699 14.1048C12.9659 13.7399 12.8289 13.2852 12.464 13.0892L11.7543 14.4107ZM6.25 7.89062V8.64062H10V7.89062V7.14062H6.25V7.89062ZM10 7.89062H10.75V6.25H10H9.25V7.89062H10ZM10 7.89062V8.64062H13.2812V7.89062V7.14062H10V7.89062ZM13.2812 7.89062V8.64062H13.75V7.89062V7.14062H13.2812V7.89062ZM13.2811 7.89062L12.6674 7.45948C11.7029 8.83233 10.5674 10.0767 9.28844 11.1627L9.77386 11.7344L10.2593 12.3061C11.6354 11.1377 12.857 9.79885 13.8947 8.32177L13.2811 7.89062ZM7.89062 13.2812L8.34101 13.8809C8.82096 13.5205 9.51735 12.961 10.2718 12.2916L9.77406 11.7306L9.27632 11.1695C8.5514 11.8127 7.88654 12.3463 7.44024 12.6815L7.89062 13.2812ZM9.77406 11.7306L10.364 11.2676C9.92895 10.7132 9.56469 10.1068 9.27967 9.46229L8.59375 9.76562L7.90783 10.069C8.24328 10.8275 8.672 11.5412 9.18408 12.1937L9.77406 11.7306ZM9.77386 11.7344L9.17207 12.182C9.85887 13.1053 10.7405 13.8663 11.7543 14.4107L12.1092 13.75L12.464 13.0892C11.6441 12.6489 10.9311 12.0335 10.3757 11.2868L9.77386 11.7344Z" fill="#071726"/>
</svg>
