<svg width="36" height="36" viewBox="0 0 36 36" fill="none" xmlns="http://www.w3.org/2000/svg">
<path fill-rule="evenodd" clip-rule="evenodd" d="M17.999 8.00027C12.4762 8.00027 7.99902 12.4774 7.99902 18.0003C7.99902 23.5231 12.4762 28.0003 17.999 28.0003C23.5219 28.0003 27.999 23.5231 27.999 18.0003C27.999 12.4774 23.5219 8.00027 17.999 8.00027ZM18.4453 12.1993C18.5232 12.2978 18.4887 12.574 18.4196 13.1265L17.998 16.4993H20.9131C21.6675 16.4993 22.0446 16.4993 22.2472 16.6557C22.4235 16.7919 22.5301 16.9994 22.5382 17.2221C22.5475 17.4778 22.328 17.7845 21.8889 18.3978L18.443 23.2111C18.119 23.6637 17.9569 23.8901 17.8328 23.9096C17.7258 23.9265 17.618 23.8843 17.5508 23.7993C17.4729 23.7008 17.5074 23.4245 17.5764 22.8721L17.998 19.4993H15.083C14.3286 19.4993 13.9515 19.4993 13.7489 19.3429C13.5726 19.2067 13.4659 18.9992 13.4579 18.7765C13.4486 18.5208 13.6681 18.2141 14.1072 17.6008L17.5531 12.7875C17.8771 12.3348 18.0392 12.1085 18.1633 12.089C18.2703 12.0721 18.3781 12.1143 18.4453 12.1993Z" fill="white"/>
<rect width="3.27273" height="3.27273" rx="1.63636" transform="matrix(-1 0 0 1 19.6348 -0.00012207)" fill="white"/>
<rect width="3.27273" height="3.27273" rx="1.63636" transform="matrix(-1 0 0 1 19.6348 32.7274)" fill="white"/>
<rect width="3.27273" height="3.27273" rx="1.63636" transform="matrix(-1 0 0 1 8.17969 27.8182)" fill="white"/>
<rect width="3.27273" height="3.27273" rx="1.63636" transform="matrix(-1 0 0 1 31.0898 27.8182)" fill="white"/>
<rect width="3.27273" height="3.27273" rx="1.63636" transform="matrix(-1 0 0 1 31.0898 4.90906)" fill="white"/>
<rect width="3.27273" height="3.27273" rx="1.63636" transform="matrix(-1 0 0 1 8.17969 4.90906)" fill="white"/>
<rect width="3.27273" height="3.27273" rx="1.63636" transform="matrix(-1 0 0 1 3.27246 16.3641)" fill="white"/>
<rect width="3.27273" height="3.27273" rx="1.63636" transform="matrix(-1 0 0 1 35.998 16.3641)" fill="white"/>
<path d="M17.9984 1.63562L6.54386 6.54471L1.63477 17.9993L6.54386 29.4538L17.9984 34.3629L29.4529 29.4538L34.362 17.9993L29.4529 6.54471L17.9984 1.63562Z" stroke="white" stroke-width="1.5" stroke-linecap="round"/>
<path d="M17.998 3.00085V6.00085M28.998 7.00085L26.998 9.00085M33.998 18.0009H29.998M28.998 29.0009L26.998 27.0009M17.998 34.0009V30.0009M6.99805 29.0009L9.99805 27.0009M1.99805 18.0009H5.99805M6.99805 7.00085L8.99805 9.00085" stroke="white" stroke-width="1.5" stroke-linecap="round"/>
<path fill-rule="evenodd" clip-rule="evenodd" d="M17.999 8.00027C12.4762 8.00027 7.99902 12.4774 7.99902 18.0003C7.99902 23.5231 12.4762 28.0003 17.999 28.0003C23.5219 28.0003 27.999 23.5231 27.999 18.0003C27.999 12.4774 23.5219 8.00027 17.999 8.00027ZM18.4453 12.1993C18.5232 12.2978 18.4887 12.574 18.4196 13.1265L17.998 16.4993H20.9131C21.6675 16.4993 22.0446 16.4993 22.2472 16.6557C22.4235 16.7919 22.5301 16.9994 22.5382 17.2221C22.5475 17.4778 22.328 17.7845 21.8889 18.3978L18.443 23.2111C18.119 23.6637 17.9569 23.8901 17.8328 23.9096C17.7258 23.9265 17.618 23.8843 17.5508 23.7993C17.4729 23.7008 17.5074 23.4245 17.5764 22.8721L17.998 19.4993H15.083C14.3286 19.4993 13.9515 19.4993 13.7489 19.3429C13.5726 19.2067 13.4659 18.9992 13.4579 18.7765C13.4486 18.5208 13.6681 18.2141 14.1072 17.6008L17.5531 12.7875C17.8771 12.3348 18.0392 12.1085 18.1633 12.089C18.2703 12.0721 18.3781 12.1143 18.4453 12.1993Z" fill="url(#paint0_linear_970_65604)"/>
<defs>
<linearGradient id="paint0_linear_970_65604" x1="17.999" y1="8.00027" x2="17.999" y2="28.0003" gradientUnits="userSpaceOnUse">
<stop stop-color="#F1DC63"/>
<stop offset="1" stop-color="white"/>
</linearGradient>
</defs>
</svg>
