<svg width="296" height="108" viewBox="0 0 296 108" fill="none" xmlns="http://www.w3.org/2000/svg">
<path fill-rule="evenodd" clip-rule="evenodd" d="M53.9995 34.0005C42.9538 34.0005 33.9995 42.9548 33.9995 54.0005C33.9995 65.0462 42.9538 74.0005 53.9995 74.0005C65.0452 74.0005 73.9995 65.0462 73.9995 54.0005C73.9995 42.9548 65.0452 34.0005 53.9995 34.0005ZM54.8921 42.3984C55.048 42.5956 54.9789 43.148 54.8408 44.2529L53.9976 50.9985H59.8278C61.3365 50.9985 62.0908 50.9985 62.4959 51.3114C62.8485 51.5837 63.0618 51.9988 63.078 52.4441C63.0966 52.9555 62.6575 53.5689 61.7793 54.7956L54.8876 64.4221C54.2394 65.3274 53.9154 65.7801 53.6671 65.8192C53.4531 65.8528 53.2375 65.7685 53.1032 65.5986C52.9473 65.4014 53.0163 64.849 53.1544 63.7442L53.9976 56.9985H48.1675C46.6588 56.9985 45.9045 56.9985 45.4994 56.6857C45.1467 56.4133 44.9334 55.9983 44.9173 55.553C44.8987 55.0415 45.3378 54.4281 46.216 53.2014L53.1077 43.575C53.7558 42.6696 54.0799 42.2169 54.3282 42.1779C54.5422 42.1442 54.7577 42.2285 54.8921 42.3984Z" fill="white"/>
<rect width="6.54545" height="6.54545" rx="3.27273" transform="matrix(-1 0 0 1 57.2708 18)" fill="white"/>
<rect width="6.54545" height="6.54545" rx="3.27273" transform="matrix(-1 0 0 1 57.2708 83.4543)" fill="white"/>
<rect width="6.54545" height="6.54545" rx="3.27273" transform="matrix(-1 0 0 1 34.3606 73.6362)" fill="white"/>
<rect width="6.54545" height="6.54545" rx="3.27273" transform="matrix(-1 0 0 1 80.1816 73.6362)" fill="white"/>
<rect width="6.54545" height="6.54545" rx="3.27273" transform="matrix(-1 0 0 1 80.1816 27.8181)" fill="white"/>
<rect width="6.54545" height="6.54545" rx="3.27273" transform="matrix(-1 0 0 1 34.3606 27.8181)" fill="white"/>
<rect width="6.54545" height="6.54545" rx="3.27273" transform="matrix(-1 0 0 1 24.5454 50.7286)" fill="white"/>
<rect width="6.54545" height="6.54545" rx="3.27273" transform="matrix(-1 0 0 1 89.9968 50.7286)" fill="white"/>
<path d="M53.998 21.2717L31.0889 31.0899L21.2708 53.999L31.0889 76.9081L53.998 86.7263L76.9071 76.9081L86.7253 53.999L76.9071 31.0899L53.998 21.2717Z" stroke="white" stroke-width="3" stroke-linecap="round"/>
<path d="M53.9966 24.0011V30.0011M75.9966 32.0011L71.9966 36.0011M85.9966 54.0011H77.9966M75.9966 76.0011L71.9966 72.0011M53.9966 86.0011V78.0011M31.9966 76.0011L37.9966 72.0011M21.9966 54.0011H29.9966M31.9966 32.0011L35.9966 36.0011" stroke="white" stroke-width="3" stroke-linecap="round"/>
<path d="M257.634 45.1083V82.9012H249.196V39.0145H257.019L257.634 45.1083ZM277.702 54.5126V55.1278C277.702 57.4325 277.429 59.5712 276.882 61.5438C276.354 63.5165 275.573 65.2352 274.538 66.7001C273.503 68.1454 272.214 69.2782 270.671 70.0985C269.147 70.8993 267.39 71.2997 265.397 71.2997C263.464 71.2997 261.784 70.9091 260.358 70.1278C258.933 69.3466 257.731 68.2528 256.755 66.8466C255.798 65.4208 255.026 63.7704 254.44 61.8954C253.854 60.0204 253.405 58.0087 253.093 55.8602V54.2489C253.405 51.9442 253.854 49.8348 254.44 47.9208C255.026 45.9872 255.798 44.3173 256.755 42.911C257.731 41.4852 258.923 40.3817 260.329 39.6005C261.755 38.8192 263.425 38.4286 265.339 38.4286C267.351 38.4286 269.118 38.8094 270.642 39.5712C272.185 40.3329 273.474 41.4266 274.509 42.8524C275.563 44.2782 276.354 45.9774 276.882 47.9501C277.429 49.9227 277.702 52.1102 277.702 54.5126ZM269.235 55.1278V54.5126C269.235 53.1649 269.118 51.9247 268.884 50.7919C268.669 49.6395 268.317 48.6337 267.829 47.7743C267.36 46.9149 266.735 46.2509 265.954 45.7821C265.192 45.2938 264.265 45.0497 263.171 45.0497C262.019 45.0497 261.032 45.2352 260.212 45.6063C259.411 45.9774 258.757 46.5145 258.249 47.2177C257.741 47.9208 257.36 48.7606 257.106 49.7372C256.853 50.7137 256.696 51.8173 256.638 53.0477V57.12C256.735 58.5653 257.009 59.8641 257.458 61.0165C257.907 62.1493 258.601 63.0477 259.538 63.7118C260.476 64.3759 261.706 64.7079 263.229 64.7079C264.343 64.7079 265.28 64.4637 266.042 63.9755C266.804 63.4677 267.419 62.7743 267.888 61.8954C268.376 61.0165 268.718 60.0009 268.913 58.8485C269.128 57.6962 269.235 56.4559 269.235 55.1278Z" fill="white"/>
<path d="M233.727 28.0575H242.487V56.2411C242.487 59.5223 241.784 62.286 240.378 64.5321C238.991 66.7782 237.067 68.4677 234.606 69.6005C232.165 70.7333 229.352 71.2997 226.169 71.2997C222.985 71.2997 220.153 70.7333 217.673 69.6005C215.212 68.4677 213.278 66.7782 211.872 64.5321C210.485 62.286 209.792 59.5223 209.792 56.2411V28.0575H218.581V56.2411C218.581 58.1552 218.884 59.7177 219.489 60.9286C220.094 62.1395 220.964 63.0282 222.096 63.5946C223.249 64.161 224.606 64.4442 226.169 64.4442C227.77 64.4442 229.128 64.161 230.241 63.5946C231.374 63.0282 232.233 62.1395 232.819 60.9286C233.425 59.7177 233.727 58.1552 233.727 56.2411V28.0575Z" fill="white"/>
<path d="M204.841 39.0145V44.9911H186.384V39.0145H204.841ZM190.954 31.1923H199.391V61.163C199.391 62.0809 199.509 62.7841 199.743 63.2723C199.997 63.7606 200.368 64.1024 200.856 64.2977C201.344 64.4735 201.96 64.5614 202.702 64.5614C203.229 64.5614 203.698 64.5419 204.108 64.5028C204.538 64.4442 204.899 64.3856 205.192 64.327L205.221 70.538C204.499 70.7723 203.718 70.9579 202.878 71.0946C202.038 71.2313 201.11 71.2997 200.094 71.2997C198.239 71.2997 196.618 70.9969 195.231 70.3915C193.864 69.7665 192.809 68.7704 192.067 67.4032C191.325 66.036 190.954 64.2391 190.954 62.0126V31.1923Z" fill="white"/>
<path d="M178.561 70.7137H170.065V36.202C170.065 33.7997 170.534 31.7782 171.471 30.1376C172.428 28.4774 173.766 27.2274 175.485 26.3876C177.223 25.5282 179.284 25.0985 181.667 25.0985C182.448 25.0985 183.2 25.1571 183.923 25.2743C184.645 25.3719 185.348 25.4989 186.032 25.6552L185.944 32.0126C185.573 31.9149 185.182 31.8466 184.772 31.8075C184.362 31.7684 183.884 31.7489 183.337 31.7489C182.321 31.7489 181.452 31.9247 180.729 32.2762C180.026 32.6083 179.489 33.1063 179.118 33.7704C178.747 34.4344 178.561 35.245 178.561 36.202V70.7137ZM184.889 39.0145V44.9911H165.348V39.0145H184.889Z" fill="white"/>
<path d="M160.837 39.0145V70.7137H152.37V39.0145H160.837ZM151.843 30.7528C151.843 29.5223 152.272 28.5067 153.132 27.7059C153.991 26.9052 155.143 26.5048 156.589 26.5048C158.014 26.5048 159.157 26.9052 160.016 27.7059C160.895 28.5067 161.335 29.5223 161.335 30.7528C161.335 31.9833 160.895 32.9989 160.016 33.7997C159.157 34.6005 158.014 35.0009 156.589 35.0009C155.143 35.0009 153.991 34.6005 153.132 33.7997C152.272 32.9989 151.843 31.9833 151.843 30.7528Z" fill="white"/>
<path d="M147.419 63.8583V70.7137H125.944V63.8583H147.419ZM128.786 28.0575V70.7137H119.997V28.0575H128.786Z" fill="white"/>
</svg>
