<svg width="24" height="25" viewBox="0 0 24 25" fill="none" xmlns="http://www.w3.org/2000/svg">
<path d="M11.9995 14.0335C11.2716 14.0335 10.6591 13.7722 10.162 13.2495C9.6648 12.7268 9.41622 12.0937 9.41622 11.3502V5.23349C9.41622 4.52066 9.66722 3.91466 10.1692 3.41549C10.6714 2.91649 11.2811 2.66699 11.9985 2.66699C12.7158 2.66699 13.3259 2.91649 13.8287 3.41549C14.3314 3.91466 14.5827 4.52066 14.5827 5.23349V11.3502C14.5827 12.0937 14.3341 12.7268 13.837 13.2495C13.3398 13.7722 12.7273 14.0335 11.9995 14.0335ZM11.212 20.571V18.0772C9.64813 17.9009 8.30022 17.2662 7.16822 16.1732C6.03622 15.0801 5.3758 13.7418 5.18697 12.1585C5.15363 11.9352 5.21055 11.7447 5.35772 11.587C5.50488 11.4292 5.6943 11.3502 5.92597 11.3502C6.14713 11.3502 6.33413 11.4273 6.48697 11.5815C6.6398 11.7357 6.73705 11.9267 6.77872 12.1545C6.98139 13.4462 7.5818 14.5017 8.57997 15.321C9.57813 16.1405 10.7174 16.5502 11.9977 16.5502C13.2961 16.5502 14.4404 16.1384 15.4307 15.3147C16.4211 14.4912 17.0204 13.4378 17.2287 12.1545C17.2656 11.9275 17.3611 11.7367 17.5155 11.582C17.6698 11.4275 17.8592 11.3502 18.0837 11.3502C18.3081 11.3502 18.4939 11.4292 18.6412 11.587C18.7884 11.7447 18.8481 11.9352 18.8202 12.1585C18.6259 13.7225 17.9672 15.0555 16.8442 16.1575C15.7214 17.2595 14.3717 17.9002 12.7952 18.0795V20.571C12.7952 20.7933 12.7179 20.9816 12.5632 21.1357C12.4086 21.2899 12.2196 21.367 11.9965 21.367C11.7735 21.367 11.587 21.2899 11.437 21.1357C11.287 20.9816 11.212 20.7933 11.212 20.571ZM11.9995 12.4502C12.2925 12.4502 12.5324 12.3433 12.7192 12.1295C12.9061 11.9155 12.9995 11.6557 12.9995 11.3502V5.24074C12.9995 4.96091 12.9038 4.72591 12.7125 4.53574C12.521 4.34541 12.2837 4.25024 12.0007 4.25024C11.7177 4.25024 11.4801 4.34449 11.288 4.53299C11.0956 4.72149 10.9995 4.95499 10.9995 5.23349V11.348C10.9995 11.655 11.0929 11.9155 11.2797 12.1295C11.4666 12.3433 11.7065 12.4502 11.9995 12.4502Z" fill="#A1A1A1"/>
</svg>
