<svg width="16" height="16" viewBox="0 0 16 16" fill="none" xmlns="http://www.w3.org/2000/svg">
<path d="M4.13642 10.803C3.84352 11.0959 3.84352 11.5707 4.13642 11.8636C4.42931 12.1565 4.90418 12.1565 5.19708 11.8636L4.13642 10.803ZM8.53041 8.53029C8.8233 8.2374 8.8233 7.76252 8.53041 7.46963C8.23752 7.17674 7.76264 7.17674 7.46975 7.46963L8.53041 8.53029ZM7.46975 7.46963C7.17686 7.76252 7.17686 8.2374 7.46975 8.53029C7.76264 8.82318 8.23752 8.82318 8.53041 8.53029L7.46975 7.46963ZM11.8637 5.19696C12.1566 4.90406 12.1566 4.42919 11.8637 4.1363C11.5709 3.8434 11.096 3.8434 10.8031 4.1363L11.8637 5.19696ZM8.53041 7.46963C8.23752 7.17674 7.76264 7.17674 7.46975 7.46963C7.17686 7.76252 7.17686 8.2374 7.46975 8.53029L8.53041 7.46963ZM10.8031 11.8636C11.096 12.1565 11.5709 12.1565 11.8637 11.8636C12.1566 11.5707 12.1566 11.0959 11.8637 10.803L10.8031 11.8636ZM7.46975 8.53029C7.76264 8.82318 8.23752 8.82318 8.53041 8.53029C8.8233 8.2374 8.8233 7.76252 8.53041 7.46963L7.46975 8.53029ZM5.19708 4.1363C4.90418 3.8434 4.42931 3.8434 4.13642 4.1363C3.84352 4.42919 3.84352 4.90406 4.13642 5.19696L5.19708 4.1363ZM4.66675 11.3333L5.19708 11.8636L8.53041 8.53029L8.00008 7.99996L7.46975 7.46963L4.13642 10.803L4.66675 11.3333ZM8.00008 7.99996L8.53041 8.53029L11.8637 5.19696L11.3334 4.66663L10.8031 4.1363L7.46975 7.46963L8.00008 7.99996ZM8.00008 7.99996L7.46975 8.53029L10.8031 11.8636L11.3334 11.3333L11.8637 10.803L8.53041 7.46963L8.00008 7.99996ZM8.00008 7.99996L8.53041 7.46963L5.19708 4.1363L4.66675 4.66663L4.13642 5.19696L7.46975 8.53029L8.00008 7.99996Z" fill="#071726"/>
</svg>
