<svg width="24" height="25" viewBox="0 0 24 25" fill="none" xmlns="http://www.w3.org/2000/svg">
<path fill-rule="evenodd" clip-rule="evenodd" d="M6.42493 4.03198C4.94908 4.34953 3.82518 5.49078 3.52698 6.97483C3.45553 7.33038 3.44838 7.96378 3.46248 12.6748C3.47718 17.5965 3.48473 17.9962 3.56788 18.2748C3.88598 19.3403 4.62088 20.2197 5.57348 20.6745C6.31558 21.0288 6.19223 21.0178 9.60793 21.0369C12.2683 21.0517 12.7371 21.0434 13.0278 20.976C13.7566 20.8069 13.7103 20.8468 17.0286 17.5285C20.3469 14.2102 20.307 14.2565 20.4761 13.5277C20.5435 13.237 20.5518 12.7682 20.537 10.1078C20.5178 6.68968 20.5287 6.80943 20.1729 6.07483C19.7042 5.10688 18.8442 4.38703 17.7749 4.06778C17.4957 3.98438 17.104 3.97743 12.1249 3.96743C7.51968 3.95818 6.72623 3.96713 6.42493 4.03198ZM6.68133 5.50533C6.57483 5.53033 6.33238 5.63243 6.14258 5.73218C5.56843 6.03388 5.13323 6.60523 4.99888 7.23373C4.96483 7.39288 4.95203 9.23443 4.96113 12.6536L4.97493 17.8324L5.18733 18.261C5.51548 18.9232 6.05173 19.3491 6.73988 19.494C6.91388 19.5307 7.83538 19.5498 9.42438 19.5498H11.8439L11.863 17.4873C11.8841 15.2089 11.8876 15.1806 12.2272 14.4694C12.5807 13.7291 13.2307 13.0798 13.9735 12.7252C14.6802 12.3877 14.7108 12.384 16.9874 12.3629L19.0499 12.3438L19.0493 9.88433C19.0487 7.18873 19.0464 7.16358 18.7476 6.60313C18.4675 6.07753 17.8897 5.64013 17.2943 5.50288C17.0146 5.43838 6.95643 5.44073 6.68133 5.50533ZM15.0813 13.9053C14.4921 14.0437 13.8382 14.5729 13.5787 15.1213C13.3661 15.5709 13.3469 15.777 13.3613 17.4625L13.3749 19.0502L15.9747 16.45L18.5746 13.8498L16.9247 13.8548C16.0173 13.8576 15.1878 13.8803 15.0813 13.9053Z" fill="#A1A1A1"/>
</svg>
