<svg width="20" height="20" viewBox="0 0 20 20" fill="none" xmlns="http://www.w3.org/2000/svg">
<path fill-rule="evenodd" clip-rule="evenodd" d="M13.7615 17.9167H6.80495C4.24965 17.9167 2.28931 16.9937 2.84614 13.279L3.4945 8.24469C3.83775 6.39114 5.02005 5.68176 6.05743 5.68176H14.5395C15.5921 5.68176 16.7058 6.44454 17.1024 8.24469L17.7508 13.279C18.2237 16.5742 16.3168 17.9167 13.7615 17.9167Z" stroke="#071726" stroke-width="1.5" stroke-linecap="round" stroke-linejoin="round"/>
<path d="M13.8758 5.49865C13.8758 3.51026 12.2639 1.89835 10.2755 1.89835V1.89835C9.31797 1.89429 8.3983 2.27182 7.71981 2.94744C7.04131 3.62307 6.6599 4.54114 6.65991 5.49865H6.65991" stroke="#071726" stroke-width="1.5" stroke-linecap="round" stroke-linejoin="round"/>
<path d="M12.7469 9.25151H12.7088" stroke="#071726" stroke-width="1.5" stroke-linecap="round" stroke-linejoin="round"/>
<path d="M7.88801 9.25151H7.84987" stroke="#071726" stroke-width="1.5" stroke-linecap="round" stroke-linejoin="round"/>
</svg>
