<svg width="16" height="16" viewBox="0 0 16 16" fill="none" xmlns="http://www.w3.org/2000/svg">
<path d="M12.883 6.31213C12.883 6.31213 12.521 10.8021 12.311 12.6935C12.211 13.5968 11.653 14.1261 10.739 14.1428C8.9997 14.1741 7.25836 14.1761 5.5197 14.1395C4.64036 14.1215 4.0917 13.5855 3.9937 12.6981C3.78236 10.7901 3.42236 6.31213 3.42236 6.31213" stroke="#071726" stroke-width="1.5" stroke-linecap="round" stroke-linejoin="round"/>
<path d="M13.8053 4.15975H2.5" stroke="#071726" stroke-width="1.5" stroke-linecap="round" stroke-linejoin="round"/>
<path d="M11.6269 4.15974C11.1036 4.15974 10.6529 3.78974 10.5502 3.27707L10.3882 2.46641C10.2882 2.09241 9.94956 1.83374 9.56356 1.83374H6.74156C6.35556 1.83374 6.01689 2.09241 5.91689 2.46641L5.75489 3.27707C5.65222 3.78974 5.20156 4.15974 4.67822 4.15974" stroke="#071726" stroke-width="1.5" stroke-linecap="round" stroke-linejoin="round"/>
</svg>
