<svg width="24" height="25" viewBox="0 0 24 25" fill="none" xmlns="http://www.w3.org/2000/svg">
<path d="M15.5492 11.267C15.9284 11.267 16.2513 11.1342 16.518 10.8687C16.7846 10.6034 16.918 10.2812 16.918 9.90224C16.918 9.52308 16.7853 9.20016 16.52 8.93349C16.2545 8.66683 15.9322 8.53349 15.5532 8.53349C15.1741 8.53349 14.8511 8.66616 14.5845 8.93149C14.3178 9.19699 14.1845 9.51924 14.1845 9.89824C14.1845 10.2774 14.3172 10.6003 14.5827 10.867C14.8481 11.1337 15.1702 11.267 15.5492 11.267ZM8.44922 11.267C8.82839 11.267 9.1513 11.1342 9.41797 10.8687C9.68464 10.6034 9.81797 10.2812 9.81797 9.90224C9.81797 9.52308 9.68522 9.20016 9.41972 8.93349C9.15439 8.66683 8.83222 8.53349 8.45322 8.53349C8.07405 8.53349 7.75114 8.66616 7.48447 8.93149C7.2178 9.19699 7.08447 9.51924 7.08447 9.89824C7.08447 10.2774 7.21714 10.6003 7.48247 10.867C7.74797 11.1337 8.07022 11.267 8.44922 11.267ZM12.0022 22.3335C10.6421 22.3335 9.36339 22.0751 8.16622 21.5582C6.96905 21.0416 5.92764 20.3402 5.04197 19.4542C4.15647 18.5682 3.45605 17.5277 2.94072 16.3325C2.42555 15.1373 2.16797 13.8602 2.16797 12.5012C2.16797 11.1411 2.42639 9.86241 2.94322 8.66524C3.45989 7.46808 4.16122 6.42666 5.04722 5.54099C5.93322 4.65549 6.9738 3.95508 8.16897 3.43974C9.36414 2.92458 10.6412 2.66699 12.0002 2.66699C13.3604 2.66699 14.6391 2.92541 15.8362 3.44224C17.0334 3.95891 18.0748 4.66024 18.9605 5.54624C19.846 6.43224 20.5464 7.47283 21.0617 8.66799C21.5769 9.86316 21.8345 11.1402 21.8345 12.4992C21.8345 13.8594 21.5761 15.1381 21.0592 16.3352C20.5426 17.5324 19.8412 18.5738 18.9552 19.4595C18.0692 20.345 17.0286 21.0454 15.8335 21.5607C14.6383 22.0759 13.3612 22.3335 12.0022 22.3335ZM12.0012 20.7502C14.3026 20.7502 16.2529 19.9506 17.8522 18.3512C19.4516 16.7519 20.2512 14.8016 20.2512 12.5002C20.2512 10.1989 19.4516 8.24858 17.8522 6.64924C16.2529 5.04991 14.3026 4.25024 12.0012 4.25024C9.69989 4.25024 7.74955 5.04991 6.15022 6.64924C4.55089 8.24858 3.75122 10.1989 3.75122 12.5002C3.75122 14.8016 4.55089 16.7519 6.15022 18.3512C7.74955 19.9506 9.69989 20.7502 12.0012 20.7502ZM11.991 17.8835C12.931 17.8835 13.7981 17.6669 14.5925 17.2337C15.3868 16.8007 16.033 16.2018 16.531 15.437C16.6306 15.2458 16.6245 15.0586 16.5125 14.8752C16.4005 14.6919 16.2325 14.6002 16.0085 14.6002H7.99822C7.76689 14.6002 7.59639 14.6919 7.48672 14.8752C7.37689 15.0586 7.3748 15.2438 7.48047 15.431C7.97214 16.1993 8.61589 16.8002 9.41172 17.2335C10.2076 17.6668 11.0673 17.8835 11.991 17.8835Z" fill="#071726"/>
</svg>
