<svg width="24" height="24" viewBox="0 0 24 24" fill="none" xmlns="http://www.w3.org/2000/svg">
<path d="M7.99981 6.49989L5.49972 3.99974C5.49972 3.99974 9.62972 3.85809 11 4.99998C13.6516 7.20962 12.4997 9.99981 12.4997 9.99981C10.4997 11.4998 10.4997 11.9998 10.9997 12.4998C10.9997 13.9998 10.925 14.3082 9.99972 13.9998C9.59943 14.3111 9.12478 12.5446 8.56697 12.8554C3.31324 12.8554 3.49984 8.68746 3.49984 6.5001L5.99981 8.49989L7.99981 6.49989Z" stroke="#071726" stroke-width="1.5"/>
<path d="M15 18C16.1046 18 17 17.1046 17 16C17 14.8954 16.1046 14 15 14C13.8954 14 13 14.8954 13 16C13 17.1046 13.8954 18 15 18Z" stroke="#071726" stroke-width="1.5" stroke-miterlimit="10" stroke-linecap="round" stroke-linejoin="round"/>
<path d="M8.5 16.5584V15.4416C8.5 14.7811 9.05293 14.2408 9.72873 14.2408C10.9083 14.2408 11.3875 13.4242 10.7977 12.4275C10.4537 11.8511 10.6626 11.1066 11.2524 10.7823L12.3705 10.1459C12.8866 9.84568 13.5501 10.0258 13.8573 10.5302L13.931 10.6502C14.5208 11.6469 15.4792 11.6469 16.069 10.6502L16.1427 10.5302C16.4499 10.0258 17.1134 9.85769 17.6295 10.1459L18.7476 10.7823C19.3374 11.1186 19.5463 11.8511 19.2023 12.4275C18.6125 13.4242 19.0917 14.2408 20.2713 14.2408C20.9471 14.2408 21.5 14.7811 21.5 15.4416V16.5584C21.5 17.2189 20.9471 17.7592 20.2713 17.7592C19.0917 17.7592 18.6125 18.5758 19.2023 19.5725C19.5463 20.1489 19.3374 20.8934 18.7476 21.2177L17.6295 21.8541C17.1134 22.1543 16.4499 21.9742 16.1427 21.4698L16.069 21.3498C15.4792 20.3531 14.5208 20.3531 13.931 21.3498L13.8573 21.4698C13.5501 21.9742 12.8866 22.1423 12.3705 21.8541L11.2524 21.2177C10.6626 20.8814 10.4537 20.1489 10.7977 19.5725C11.3875 18.5758 10.9083 17.7592 9.72873 17.7592C9.05293 17.7712 8.5 17.2309 8.5 16.5584Z" stroke="#071726" stroke-width="1.5" stroke-miterlimit="10" stroke-linecap="round" stroke-linejoin="round"/>
</svg>
