<svg width="60" height="60" viewBox="0 0 60 60" fill="none" xmlns="http://www.w3.org/2000/svg">
<path fill-rule="evenodd" clip-rule="evenodd" d="M10.6395 27.4583L14.1333 24.7099C15.1395 23.9573 16.5652 24.162 17.3188 25.1674L31.7103 43.4623C32.51 44.4316 32.3733 45.8654 31.4048 46.666L27.9111 49.4144C26.9049 50.167 25.4792 49.9623 24.7256 48.9569L21.8477 45.2984L16.8554 49.2255C15.8493 49.9782 14.4236 49.7735 13.6699 48.768L7.91416 41.4512C7.11447 40.482 7.2512 39.0481 8.21965 38.2475L13.2119 34.3204L10.334 30.662C9.53436 29.6927 9.67109 28.2589 10.6395 27.4583Z" stroke="#071726" stroke-width="3" stroke-linecap="round" stroke-linejoin="round"/>
<path fill-rule="evenodd" clip-rule="evenodd" d="M49.3677 32.5359L45.874 35.2843C44.8678 36.0369 43.4421 35.8322 42.6885 34.8268L28.297 16.5319C27.4973 15.5626 27.634 14.1288 28.6024 13.3282L32.0962 10.5799C33.1024 9.82717 34.5281 10.0319 35.2817 11.0374L38.1596 14.6958L43.1491 10.7708C43.6322 10.4083 44.2396 10.2525 44.8376 10.3379C45.4356 10.4233 45.9751 10.7429 46.3374 11.2262L52.0931 18.543C52.8928 19.5123 52.7561 20.9461 51.7876 21.7467L46.7954 25.6738L49.6732 29.3323C50.4729 30.3015 50.3362 31.7353 49.3677 32.5359Z" stroke="#071726" stroke-width="3" stroke-linecap="round" stroke-linejoin="round"/>
<path d="M20.6668 46.2261C21.179 46.8772 22.122 46.9899 22.7731 46.4777C23.4243 45.9655 23.5369 45.0224 23.0247 44.3713L20.6668 46.2261ZM14.3889 33.3933C13.8767 32.7422 12.9337 32.6295 12.2826 33.1417C11.6314 33.6539 11.5188 34.597 12.031 35.2481L14.3889 33.3933ZM39.3394 13.7665C38.8272 13.1154 37.8842 13.0027 37.2331 13.5149C36.582 14.0271 36.4693 14.9702 36.9815 15.6213L39.3394 13.7665ZM45.6173 26.5993C46.1295 27.2504 47.0725 27.3631 47.7237 26.8509C48.3748 26.3387 48.4874 25.3956 47.9752 24.7445L45.6173 26.5993ZM23.5844 33.1377C22.9333 33.6499 22.8207 34.5929 23.3329 35.2441C23.8451 35.8952 24.7881 36.0078 25.4392 35.4956L23.5844 33.1377ZM36.4173 26.8598C37.0684 26.3476 37.181 25.4046 36.6688 24.7535C36.1566 24.1024 35.2136 23.9897 34.5625 24.5019L36.4173 26.8598ZM21.8457 45.2987L23.0247 44.3713L14.3889 33.3933L13.21 34.3207L12.031 35.2481L20.6668 46.2261L21.8457 45.2987ZM38.1605 14.6939L36.9815 15.6213L45.6173 26.5993L46.7963 25.6719L47.9752 24.7445L39.3394 13.7665L38.1605 14.6939ZM24.5118 34.3167L25.4392 35.4956L36.4173 26.8598L35.4899 25.6809L34.5625 24.5019L23.5844 33.1377L24.5118 34.3167Z" fill="#071726"/>
</svg>
