<svg width="17" height="16" viewBox="0 0 17 16" fill="none" xmlns="http://www.w3.org/2000/svg">
<path fill-rule="evenodd" clip-rule="evenodd" d="M4.28976 6.17943L4.27296 6.21943C4.20177 6.39404 4.14113 6.57276 4.09136 6.75464L3.47215 6.38983C2.92367 6.06185 2.73781 5.35571 3.05374 4.8002C3.20212 4.53406 3.45145 4.33891 3.74545 4.25882C4.03945 4.17874 4.35331 4.22047 4.61617 4.37459L5.23618 4.7394C4.85927 5.13028 4.55359 5.58406 4.33297 6.08023C4.31857 6.11276 4.30417 6.14583 4.28976 6.17943Z" stroke="#071726" stroke-width="1.5" stroke-linecap="round" stroke-linejoin="round"/>
<path fill-rule="evenodd" clip-rule="evenodd" d="M12.7108 6.17943L12.7276 6.21943C12.7988 6.39404 12.8595 6.57276 12.9092 6.75464L13.5292 6.39063C14.0779 6.06235 14.2635 5.35568 13.9468 4.8002C13.7985 4.53406 13.5491 4.33891 13.2551 4.25882C12.9611 4.17874 12.6473 4.22047 12.3844 4.37459L11.7644 4.7394C12.1413 5.13028 12.447 5.58406 12.6676 6.08023C12.682 6.11276 12.6964 6.14583 12.7108 6.17943Z" stroke="#071726" stroke-width="1.5" stroke-linecap="round" stroke-linejoin="round"/>
<path fill-rule="evenodd" clip-rule="evenodd" d="M7.10034 8C7.10025 7.71915 7.18228 7.44441 7.33635 7.20959C7.48908 6.97649 7.70768 6.79409 7.96436 6.68558C8.48793 6.46549 9.09281 6.58761 9.48999 6.99358C9.78722 7.2962 9.93527 7.71486 9.89436 8.13705C9.85346 8.55925 9.62778 8.9417 9.27799 9.18163C8.7237 9.55905 7.97853 9.48454 7.50995 9.00482C7.24704 8.73649 7.09995 8.37567 7.10034 8Z" stroke="#071726" stroke-width="1.5" stroke-linecap="round" stroke-linejoin="round"/>
<path d="M8.50645 2.35007C8.92065 2.34664 9.25364 2.00809 9.25021 1.59389C9.24678 1.17969 8.90822 0.846693 8.49402 0.850123L8.50645 2.35007ZM7.68702 1.94505L7.15211 1.41933V1.41933L7.68702 1.94505ZM7.35621 2.76412H8.10624L8.10618 2.75733L7.35621 2.76412ZM6.60621 3.49374C6.60621 3.90795 6.942 4.24374 7.35621 4.24374C7.77043 4.24374 8.10621 3.90795 8.10621 3.49374H6.60621ZM7.16621 2.76817C6.76551 2.87308 6.52571 3.28296 6.63062 3.68367C6.73552 4.08438 7.14541 4.32417 7.54611 4.21926L7.16621 2.76817ZM7.73217 3.41372L7.85396 4.15379L7.86068 4.15262L7.73217 3.41372ZM8.17698 3.35931L8.12461 2.61114L8.12355 2.61122L8.17698 3.35931ZM8.82339 3.35931L8.74488 4.10519C8.75316 4.10607 8.76146 4.1068 8.76977 4.10739L8.82339 3.35931ZM9.2682 3.41372L9.14015 4.1527L9.14036 4.15274L9.2682 3.41372ZM9.46011 4.22077C9.86165 4.32245 10.2696 4.07936 10.3713 3.67782C10.4729 3.27628 10.2299 2.86834 9.82831 2.76666L9.46011 4.22077ZM7.54833 4.21886C7.94872 4.11274 8.18727 3.70214 8.08116 3.30175C7.97504 2.90136 7.56444 2.6628 7.16405 2.76892L7.54833 4.21886ZM5.95856 4.1339L6.38147 4.75329L6.3819 4.75299L5.95856 4.1339ZM4.69806 4.22274C4.41088 4.52124 4.42007 4.99602 4.71857 5.2832C5.01707 5.57037 5.49186 5.56119 5.77903 5.26269L4.69806 4.22274ZM8.49402 15.1503C8.90822 15.1538 9.24678 14.8208 9.25021 14.4066C9.25364 13.9924 8.92064 13.6538 8.50645 13.6504L8.49402 15.1503ZM7.68702 14.0554L7.15211 14.5811L7.68702 14.0554ZM7.35621 13.2363L8.10621 13.2431V13.2363H7.35621ZM8.10621 12.5067C8.10621 12.0925 7.77043 11.7567 7.35621 11.7567C6.942 11.7567 6.60621 12.0925 6.60621 12.5067H8.10621ZM4.8157 6.95109C4.92475 6.55149 4.68921 6.13915 4.28961 6.0301C3.89001 5.92105 3.47767 6.15659 3.36862 6.55619L4.8157 6.95109ZM3.36862 9.44314C3.47767 9.84274 3.89001 10.0783 4.28961 9.96923C4.68921 9.86018 4.92475 9.44784 4.8157 9.04824L3.36862 9.44314ZM4.27166 11.2843C4.52095 11.6151 4.9912 11.6812 5.322 11.4319C5.6528 11.1826 5.71888 10.7124 5.46959 10.3816L4.27166 11.2843ZM4.81573 9.04897C4.70664 8.64938 4.29427 8.41389 3.89468 8.52298C3.49509 8.63208 3.2596 9.04445 3.36869 9.44404L4.81573 9.04897ZM4.47188 9.89328C4.82908 9.68356 4.94865 9.22399 4.73893 8.86679C4.52922 8.50958 4.06965 8.39002 3.71244 8.59973L4.47188 9.89328ZM3.47215 9.61051L3.09242 8.96372L3.08723 8.96682L3.47215 9.61051ZM3.05374 11.2001L3.70884 10.8349L3.70568 10.8294L3.05374 11.2001ZM3.74545 11.7415L3.54833 12.4652H3.54833L3.74545 11.7415ZM4.61617 11.6258L4.99552 12.2727L4.99615 12.2724L4.61617 11.6258ZM5.61696 11.9076C5.97408 11.6977 6.09346 11.2381 5.88361 10.881C5.67375 10.5239 5.21413 10.4045 4.85701 10.6143L5.61696 11.9076ZM6.14022 12.8442C6.51035 13.0302 6.96114 12.8809 7.1471 12.5108C7.33306 12.1406 7.18376 11.6898 6.81363 11.5039L6.14022 12.8442ZM5.77677 10.7406C5.48924 10.4425 5.01445 10.4338 4.71629 10.7214C4.41812 11.0089 4.40951 11.4837 4.69703 11.7818L5.77677 10.7406ZM4.69693 11.7815C4.98441 12.0797 5.45921 12.0884 5.75741 11.8009C6.05562 11.5134 6.06431 11.0386 5.77682 10.7404L4.69693 11.7815ZM5.19179 9.95679C4.98759 9.59641 4.52991 9.4698 4.16952 9.674C3.80914 9.87819 3.68253 10.3359 3.88673 10.6963L5.19179 9.95679ZM8.49993 13.4049C8.91414 13.4051 9.25007 13.0694 9.25024 12.6552C9.25042 12.241 8.91478 11.9051 8.50056 11.9049L8.49993 13.4049ZM6.5941 11.3853C6.23709 11.1752 5.77741 11.2944 5.56737 11.6514C5.35733 12.0084 5.47648 12.4681 5.83349 12.6781L6.5941 11.3853ZM8.50638 0.850123C8.09218 0.846693 7.75363 1.17969 7.7502 1.59389C7.74677 2.00809 8.07976 2.34664 8.49396 2.35007L8.50638 0.850123ZM9.31339 1.94505L9.8483 1.41933V1.41933L9.31339 1.94505ZM9.6442 2.76412L8.8942 2.75733V2.76412H9.6442ZM8.8942 3.49374C8.8942 3.90795 9.22998 4.24374 9.6442 4.24374C10.0584 4.24374 10.3942 3.90795 10.3942 3.49374H8.8942ZM9.83632 2.76892C9.43593 2.6628 9.02533 2.90136 8.91921 3.30175C8.81309 3.70214 9.05165 4.11274 9.45204 4.21886L9.83632 2.76892ZM11.0418 4.1339L10.6185 4.75299L10.6189 4.75329L11.0418 4.1339ZM11.2213 5.26269C11.5085 5.56119 11.9833 5.57037 12.2818 5.2832C12.5803 4.99602 12.5895 4.52124 12.3023 4.22274L11.2213 5.26269ZM8.49396 13.6504C8.07976 13.6538 7.74677 13.9924 7.7502 14.4066C7.75363 14.8208 8.09218 15.1538 8.50638 15.1503L8.49396 13.6504ZM9.31339 14.0554L9.8483 14.5811L9.31339 14.0554ZM9.6442 13.2363H8.89416L8.89423 13.2431L9.6442 13.2363ZM10.3942 12.5067C10.3942 12.0925 10.0584 11.7567 9.6442 11.7567C9.22998 11.7567 8.8942 12.0925 8.8942 12.5067H10.3942ZM13.6318 6.55619C13.5228 6.15659 13.1104 5.92105 12.7108 6.0301C12.3112 6.13915 12.0757 6.55149 12.1847 6.95109L13.6318 6.55619ZM12.1847 9.04824C12.0757 9.44784 12.3112 9.86018 12.7108 9.96923C13.1104 10.0783 13.5228 9.84274 13.6318 9.44314L12.1847 9.04824ZM11.531 10.382C11.2818 10.7128 11.3479 11.183 11.6787 11.4323C12.0096 11.6815 12.4798 11.6154 12.7291 11.2846L11.531 10.382ZM13.632 9.44337C13.741 9.04375 13.5054 8.63144 13.1058 8.52246C12.7062 8.41348 12.2939 8.64908 12.1849 9.0487L13.632 9.44337ZM13.288 8.59926C12.9308 8.38955 12.4712 8.50911 12.2615 8.86632C12.0518 9.22352 12.1713 9.68309 12.5285 9.89281L13.288 8.59926ZM13.5283 9.61004L13.913 8.9662L13.908 8.96327L13.5283 9.61004ZM13.9467 11.2005L13.2949 10.8293L13.2916 10.8353L13.9467 11.2005ZM13.255 11.7419L13.0579 11.0182H13.0579L13.255 11.7419ZM12.3843 11.6261L12.0043 12.2727L12.0049 12.2731L12.3843 11.6261ZM12.1434 10.6147C11.7863 10.4048 11.3267 10.5242 11.1168 10.8813C10.907 11.2384 11.0263 11.698 11.3835 11.9079L12.1434 10.6147ZM10.1876 11.5043C9.81745 11.6903 9.66815 12.1411 9.8541 12.5112C10.0401 12.8813 10.4909 13.0306 10.861 12.8447L10.1876 11.5043ZM12.3042 11.7823C12.5917 11.4842 12.5831 11.0094 12.2849 10.7218C11.9868 10.4343 11.512 10.4429 11.2244 10.7411L12.3042 11.7823ZM11.2243 10.7413C10.9368 11.0395 10.9455 11.5143 11.2437 11.8018C11.5419 12.0893 12.0167 12.0806 12.3042 11.7824L11.2243 10.7413ZM13.1144 10.6972C13.3186 10.3368 13.192 9.87913 12.8316 9.67493C12.4712 9.47073 12.0135 9.59734 11.8093 9.95773L13.1144 10.6972ZM8.49985 11.9049C8.08564 11.9051 7.75 12.241 7.75017 12.6552C7.75035 13.0694 8.08628 13.4051 8.50049 13.4049L8.49985 11.9049ZM11.1669 12.6781C11.5239 12.4681 11.6431 12.0084 11.433 11.6514C11.223 11.2944 10.7633 11.1752 10.4063 11.3853L11.1669 12.6781ZM8.50024 1.6001L8.49402 0.850123C7.98892 0.854306 7.50618 1.05907 7.15211 1.41933L7.68702 1.94505L8.22192 2.47076C8.29699 2.39437 8.39935 2.35096 8.50645 2.35007L8.50024 1.6001ZM7.68702 1.94505L7.15211 1.41933C6.79804 1.77959 6.60167 2.2658 6.60624 2.77091L7.35621 2.76412L8.10618 2.75733C8.10521 2.65024 8.14685 2.54715 8.22192 2.47076L7.68702 1.94505ZM7.35621 2.76412H6.60621V3.49374H7.35621H8.10621V2.76412H7.35621ZM7.35616 3.49372L7.54611 4.21926C7.64796 4.1926 7.75055 4.17078 7.85395 4.15376L7.73217 3.41372L7.61039 2.67367C7.46099 2.69825 7.31291 2.72977 7.16621 2.76817L7.35616 3.49372ZM7.73217 3.41372L7.86068 4.15262C7.98298 4.13136 8.10619 4.11628 8.23042 4.10741L8.17698 3.35931L8.12355 2.61122C7.9491 2.62368 7.77577 2.64488 7.60367 2.67481L7.73217 3.41372ZM8.17698 3.35931L8.22935 4.10748C8.31863 4.10123 8.40784 4.09811 8.49699 4.09811V3.34811V2.59811C8.3728 2.59811 8.24867 2.60246 8.12461 2.61115L8.17698 3.35931ZM8.49699 3.34811V4.09811C8.61187 4.09811 8.6845 4.09884 8.74488 4.10519L8.82339 3.35931L8.90191 2.61344C8.74948 2.59739 8.59651 2.59811 8.49699 2.59811V3.34811ZM8.82339 3.35931L8.76977 4.10739C8.8935 4.11626 9.01693 4.13135 9.14015 4.1527L9.2682 3.41372L9.39626 2.67473C9.224 2.64488 9.0509 2.6237 8.87702 2.61123L8.82339 3.35931ZM9.2682 3.41372L9.14036 4.15274C9.24787 4.17134 9.35444 4.19401 9.46011 4.22077L9.64421 3.49372L9.82831 2.76666C9.68544 2.73049 9.54134 2.69983 9.39605 2.67469L9.2682 3.41372ZM7.35619 3.49389L7.16405 2.76892C6.5826 2.92302 6.03174 3.17527 5.53521 3.5148L5.95856 4.1339L6.3819 4.75299C6.73747 4.50985 7.13195 4.32921 7.54833 4.21886L7.35619 3.49389ZM5.95856 4.1339L5.53565 3.51451C5.23289 3.72122 4.95222 3.95855 4.69806 4.22274L5.23854 4.74271L5.77903 5.26269C5.96184 5.07267 6.16371 4.90197 6.38147 4.75329L5.95856 4.1339ZM8.50024 14.4004L8.50645 13.6504C8.39935 13.6495 8.29699 13.6061 8.22192 13.5297L7.68702 14.0554L7.15211 14.5811C7.50618 14.9414 7.98892 15.1462 8.49402 15.1503L8.50024 14.4004ZM7.68702 14.0554L8.22192 13.5297C8.14685 13.4533 8.10521 13.3502 8.10618 13.2431L7.35621 13.2363L6.60624 13.2296C6.60167 13.7347 6.79804 14.2209 7.15211 14.5811L7.68702 14.0554ZM7.35621 13.2363H8.10621V12.5067H7.35621H6.60621V13.2363H7.35621ZM4.09216 6.75364L3.36862 6.55619C3.11072 7.50123 3.11072 8.4981 3.36862 9.44314L4.09216 9.24569L4.8157 9.04824C4.62836 8.36174 4.62836 7.63759 4.8157 6.95109L4.09216 6.75364ZM4.87063 10.8329L5.46959 10.3816C5.16912 9.98284 4.94723 9.53061 4.81573 9.04897L4.09221 9.2465L3.36869 9.44404C3.55028 10.1092 3.85672 10.7337 4.27166 11.2843L4.87063 10.8329ZM4.09216 9.2465L3.71244 8.59973L3.09243 8.96374L3.47215 9.61051L3.85187 10.2573L4.47188 9.89328L4.09216 9.2465ZM3.47215 9.61051L3.08723 8.96682C2.18873 9.50412 1.88425 10.6609 2.4018 11.5709L3.05374 11.2001L3.70568 10.8294C3.59137 10.6284 3.65862 10.3729 3.85707 10.2542L3.47215 9.61051ZM3.05374 11.2001L2.39866 11.5654C2.64527 12.0077 3.05969 12.332 3.54833 12.4652L3.74545 11.7415L3.94257 11.0179C3.84322 10.9908 3.75896 10.9249 3.70881 10.8349L3.05374 11.2001ZM3.74545 11.7415L3.54833 12.4652C4.03698 12.5983 4.55864 12.5289 4.99552 12.2727L4.61617 11.6258L4.23682 10.9788C4.14799 11.0308 4.04192 11.045 3.94257 11.0179L3.74545 11.7415ZM4.61617 11.6258L4.99615 12.2724L5.61696 11.9076L5.23698 11.2609L4.85701 10.6143L4.2362 10.9791L4.61617 11.6258ZM6.47693 12.1741L6.81363 11.5039C6.4274 11.3098 6.07682 11.0518 5.77677 10.7406L5.2369 11.2612L4.69703 11.7818C5.11466 12.2149 5.60263 12.5741 6.14022 12.8442L6.47693 12.1741ZM5.23687 11.2609L5.77682 10.7404C5.54968 10.5048 5.35313 10.2415 5.19179 9.95679L4.53926 10.3265L3.88673 10.6963C4.11016 11.0906 4.38237 11.4552 4.69693 11.7815L5.23687 11.2609ZM8.50024 12.6549L8.50056 11.9049C7.83013 11.9046 7.17195 11.7252 6.5941 11.3853L6.2138 12.0317L5.83349 12.6781C6.64169 13.1536 7.56224 13.4045 8.49993 13.4049L8.50024 12.6549ZM8.50017 1.6001L8.49396 2.35007C8.60106 2.35096 8.70341 2.39438 8.77849 2.47076L9.31339 1.94505L9.8483 1.41933C9.49423 1.05907 9.01149 0.854306 8.50638 0.850123L8.50017 1.6001ZM9.31339 1.94505L8.77849 2.47076C8.85356 2.54715 8.8952 2.65024 8.89423 2.75733L9.6442 2.76412L10.3942 2.77091C10.3987 2.2658 10.2024 1.77959 9.8483 1.41933L9.31339 1.94505ZM9.6442 2.76412H8.8942V3.49374H9.6442H10.3942V2.76412H9.6442ZM9.64418 3.49389L9.45204 4.21886C9.86842 4.32921 10.2629 4.50985 10.6185 4.75299L11.0418 4.1339L11.4652 3.5148C10.9686 3.17527 10.4178 2.92302 9.83632 2.76892L9.64418 3.49389ZM11.0418 4.1339L10.6189 4.75329C10.8367 4.90197 11.0385 5.07267 11.2213 5.26269L11.7618 4.74271L12.3023 4.22274C12.0482 3.95855 11.7675 3.72122 11.4647 3.51451L11.0418 4.1339ZM8.50017 14.4004L8.50638 15.1503C9.01149 15.1462 9.49423 14.9414 9.8483 14.5811L9.31339 14.0554L8.77849 13.5297C8.70341 13.6061 8.60106 13.6495 8.49396 13.6504L8.50017 14.4004ZM9.31339 14.0554L9.8483 14.5811C10.2024 14.2209 10.3987 13.7347 10.3942 13.2296L9.6442 13.2363L8.89423 13.2431C8.8952 13.3502 8.85356 13.4533 8.77849 13.5297L9.31339 14.0554ZM9.6442 13.2363H10.3942V12.5067H9.6442H8.8942V13.2363H9.6442ZM12.9083 6.75364L12.1847 6.95109C12.3721 7.63759 12.3721 8.36174 12.1847 9.04824L12.9083 9.24569L13.6318 9.44314C13.8897 8.4981 13.8897 7.50123 13.6318 6.55619L12.9083 6.75364ZM12.13 10.8333L12.7291 11.2846C13.1441 10.7337 13.4505 10.1088 13.632 9.44337L12.9084 9.24603L12.1849 9.0487C12.0535 9.53057 11.8316 9.98304 11.531 10.382L12.13 10.8333ZM12.9083 9.24603L12.5285 9.89281L13.1486 10.2568L13.5283 9.61004L13.908 8.96327L13.288 8.59926L12.9083 9.24603ZM13.5283 9.61004L13.1436 10.2539C13.3422 10.3725 13.4095 10.6283 13.295 10.8293L13.9467 11.2005L14.5984 11.5716C15.1168 10.6613 14.8123 9.50357 13.913 8.96622L13.5283 9.61004ZM13.9467 11.2005L13.2916 10.8353C13.2415 10.9252 13.1572 10.9912 13.0579 11.0182L13.255 11.7419L13.4521 12.4655C13.9407 12.3324 14.3552 12.008 14.6018 11.5657L13.9467 11.2005ZM13.255 11.7419L13.0579 11.0182C12.9585 11.0453 12.8524 11.0312 12.7636 10.9791L12.3843 11.6261L12.0049 12.2731C12.4418 12.5292 12.9634 12.5986 13.4521 12.4655L13.255 11.7419ZM12.3843 11.6261L12.7642 10.9795L12.1434 10.6147L11.7634 11.2613L11.3835 11.9079L12.0043 12.2727L12.3843 11.6261ZM10.5243 12.1745L10.861 12.8447C11.3986 12.5746 11.8865 12.2154 12.3042 11.7823L11.7643 11.2617L11.2244 10.7411C10.9244 11.0522 10.5738 11.3103 10.1876 11.5043L10.5243 12.1745ZM11.7643 11.2619L12.3042 11.7824C12.6188 11.4561 12.891 11.0915 13.1144 10.6972L12.4619 10.3275L11.8093 9.95773C11.648 10.2425 11.4514 10.5057 11.2243 10.7413L11.7643 11.2619ZM8.50017 12.6549L8.50049 13.4049C9.43818 13.4045 10.3587 13.1536 11.1669 12.6781L10.7866 12.0317L10.4063 11.3853C9.82847 11.7252 9.17029 11.9046 8.49985 11.9049L8.50017 12.6549Z" fill="#071726"/>
</svg>
