<svg width="24" height="25" viewBox="0 0 24 25" fill="none" xmlns="http://www.w3.org/2000/svg">
<path d="M11.9995 14.0333C11.2716 14.0333 10.6591 13.772 10.162 13.2493C9.6648 12.7266 9.41622 12.0936 9.41622 11.3501V5.23331C9.41622 4.52048 9.66722 3.91448 10.1692 3.41531C10.6714 2.91631 11.2811 2.66681 11.9985 2.66681C12.7158 2.66681 13.3259 2.91631 13.8287 3.41531C14.3314 3.91448 14.5827 4.52048 14.5827 5.23331V11.3501C14.5827 12.0936 14.3341 12.7266 13.837 13.2493C13.3398 13.772 12.7273 14.0333 11.9995 14.0333ZM11.212 20.5708V18.0771C9.64813 17.9007 8.30022 17.2661 7.16822 16.1731C6.03622 15.0799 5.3758 13.7416 5.18697 12.1583C5.15363 11.935 5.21055 11.7445 5.35772 11.5868C5.50488 11.429 5.6943 11.3501 5.92597 11.3501C6.14713 11.3501 6.33413 11.4271 6.48697 11.5813C6.6398 11.7355 6.73705 11.9265 6.77872 12.1543C6.98139 13.446 7.5818 14.5015 8.57997 15.3208C9.57813 16.1403 10.7174 16.5501 11.9977 16.5501C13.2961 16.5501 14.4404 16.1382 15.4307 15.3146C16.4211 14.4911 17.0204 13.4376 17.2287 12.1543C17.2656 11.9273 17.3611 11.7365 17.5155 11.5818C17.6698 11.4273 17.8592 11.3501 18.0837 11.3501C18.3081 11.3501 18.4939 11.429 18.6412 11.5868C18.7884 11.7445 18.8481 11.935 18.8202 12.1583C18.6259 13.7223 17.9672 15.0553 16.8442 16.1573C15.7214 17.2593 14.3717 17.9 12.7952 18.0793V20.5708C12.7952 20.7931 12.7179 20.9814 12.5632 21.1356C12.4086 21.2897 12.2196 21.3668 11.9965 21.3668C11.7735 21.3668 11.587 21.2897 11.437 21.1356C11.287 20.9814 11.212 20.7931 11.212 20.5708ZM11.9995 12.4501C12.2925 12.4501 12.5324 12.3431 12.7192 12.1293C12.9061 11.9153 12.9995 11.6556 12.9995 11.3501V5.24056C12.9995 4.96073 12.9038 4.72573 12.7125 4.53556C12.521 4.34523 12.2837 4.25006 12.0007 4.25006C11.7177 4.25006 11.4801 4.34431 11.288 4.53281C11.0956 4.72131 10.9995 4.95481 10.9995 5.23331V11.3478C10.9995 11.6548 11.0929 11.9153 11.2797 12.1293C11.4666 12.3431 11.7065 12.4501 11.9995 12.4501Z" fill="#071726"/>
</svg>
