<svg width="16" height="17" viewBox="0 0 16 17" fill="none" xmlns="http://www.w3.org/2000/svg">
<path d="M12.1181 4.5C11.8413 4.74431 11.6667 5.10177 11.6667 5.5C11.6667 6.23638 12.2636 6.83333 13 6.83333C13.1151 6.83333 13.6667 6.83333 14 6.5M4 12.5C4.5207 11.9793 4.5207 11.0207 4 10.5C3.4793 9.9793 2.5207 9.9793 2 10.5M4 4.5C4.5207 5.0207 4.5207 5.9793 4 6.5C3.4793 7.0207 2.5207 7.0207 2 6.5M12 12.5C11.4793 11.9793 11.4793 11.0207 12 10.5C12.5207 9.9793 13.4793 9.9793 14 10.5M4.13333 12.5H11.8667C12.6134 12.5 12.9868 12.5 13.272 12.3547C13.5229 12.2268 13.7268 12.0229 13.8547 11.772C14 11.4868 14 11.1134 14 10.3667V6.63333C14 5.8866 14 5.51323 13.8547 5.22801C13.7268 4.97713 13.5229 4.77316 13.272 4.64532C12.9868 4.5 12.6134 4.5 11.8667 4.5H4.13333C3.3866 4.5 3.01323 4.5 2.72801 4.64532C2.47713 4.77316 2.27316 4.97713 2.14532 5.22801C2 5.51323 2 5.8866 2 6.63333V10.3667C2 11.1134 2 11.4868 2.14532 11.772C2.27316 12.0229 2.47713 12.2268 2.72801 12.3547C3.01323 12.5 3.3866 12.5 4.13333 12.5ZM9.33333 8.5C9.33333 9.23638 8.73638 9.83333 8 9.83333C7.26362 9.83333 6.66667 9.23638 6.66667 8.5C6.66667 7.76362 7.26362 7.16667 8 7.16667C8.73638 7.16667 9.33333 7.76362 9.33333 8.5Z" stroke="#071726" stroke-width="1.5" stroke-linecap="round" stroke-linejoin="round"/>
</svg>
