<svg width="20" height="20" viewBox="0 0 20 20" fill="none" xmlns="http://www.w3.org/2000/svg">
<path fill-rule="evenodd" clip-rule="evenodd" d="M7.43635 2.50001H12.6944C12.7491 2.50001 12.8033 2.50367 12.8573 2.51101C14.9976 2.66817 16.6596 4.5332 16.6668 6.786V13.215C16.659 15.5871 14.8231 17.5044 12.564 17.5H7.43635C5.17684 17.5044 3.34085 15.5865 3.3335 13.214V6.786C3.34085 4.41352 5.17684 2.49558 7.43635 2.50001Z" stroke="#071726" stroke-width="1.5" stroke-linecap="round" stroke-linejoin="round"/>
<path d="M15.8337 7.65503C16.2479 7.65503 16.5837 7.31924 16.5837 6.90503C16.5837 6.49082 16.2479 6.15503 15.8337 6.15503V7.65503ZM12.5003 6.90503H11.7503C11.7503 7.31924 12.0861 7.65503 12.5003 7.65503V6.90503ZM13.2503 3.34253C13.2503 2.92832 12.9145 2.59253 12.5003 2.59253C12.0861 2.59253 11.7503 2.92832 11.7503 3.34253H13.2503ZM9.16699 13.25C9.58121 13.25 9.91699 12.9142 9.91699 12.5C9.91699 12.0858 9.58121 11.75 9.16699 11.75V13.25ZM6.66699 11.75C6.25278 11.75 5.91699 12.0858 5.91699 12.5C5.91699 12.9142 6.25278 13.25 6.66699 13.25V11.75ZM12.5003 10.75C12.9145 10.75 13.2503 10.4142 13.2503 10C13.2503 9.58582 12.9145 9.25003 12.5003 9.25003V10.75ZM6.66699 9.25003C6.25278 9.25003 5.91699 9.58582 5.91699 10C5.91699 10.4142 6.25278 10.75 6.66699 10.75V9.25003ZM15.8337 6.90503V6.15503H12.5003V6.90503V7.65503H15.8337V6.90503ZM12.5003 6.90503H13.2503V3.34253H12.5003H11.7503V6.90503H12.5003ZM9.16699 12.5V11.75H6.66699V12.5V13.25H9.16699V12.5ZM12.5003 10V9.25003H6.66699V10V10.75H12.5003V10Z" fill="#071726"/>
</svg>
