<svg width="24" height="25" viewBox="0 0 24 25" fill="none" xmlns="http://www.w3.org/2000/svg">
<path d="M11.25 13.25V16.5C11.25 16.7125 11.3219 16.8906 11.4658 17.0343C11.6096 17.1781 11.7878 17.25 12.0003 17.25C12.2129 17.25 12.391 17.1781 12.5345 17.0343C12.6782 16.8906 12.75 16.7125 12.75 16.5V13.25H16C16.2125 13.25 16.3906 13.1781 16.5343 13.0343C16.6781 12.8904 16.75 12.7122 16.75 12.4998C16.75 12.2871 16.6781 12.109 16.5343 11.9655C16.3906 11.8218 16.2125 11.75 16 11.75H12.75V8.5C12.75 8.2875 12.6781 8.10942 12.5343 7.96575C12.3904 7.82192 12.2122 7.75 11.9998 7.75C11.7871 7.75 11.609 7.82192 11.4655 7.96575C11.3218 8.10942 11.25 8.2875 11.25 8.5V11.75H8C7.7875 11.75 7.60942 11.8219 7.46575 11.9658C7.32192 12.1096 7.25 12.2878 7.25 12.5003C7.25 12.7129 7.32192 12.891 7.46575 13.0345C7.60942 13.1782 7.7875 13.25 8 13.25H11.25ZM12.0017 22C10.6877 22 9.45267 21.7507 8.2965 21.252C7.14033 20.7533 6.13467 20.0766 5.2795 19.2218C4.42433 18.3669 3.74725 17.3617 3.24825 16.206C2.74942 15.0503 2.5 13.8156 2.5 12.5017C2.5 11.1877 2.74933 9.95267 3.248 8.7965C3.74667 7.64033 4.42342 6.63467 5.27825 5.7795C6.13308 4.92433 7.13833 4.24725 8.294 3.74825C9.44967 3.24942 10.6844 3 11.9983 3C13.3123 3 14.5473 3.24933 15.7035 3.748C16.8597 4.24667 17.8653 4.92342 18.7205 5.77825C19.5757 6.63308 20.2528 7.63833 20.7518 8.794C21.2506 9.94967 21.5 11.1844 21.5 12.4983C21.5 13.8123 21.2507 15.0473 20.752 16.2035C20.2533 17.3597 19.5766 18.3653 18.7218 19.2205C17.8669 20.0757 16.8617 20.7528 15.706 21.2518C14.5503 21.7506 13.3156 22 12.0017 22ZM12 20.5C14.2333 20.5 16.125 19.725 17.675 18.175C19.225 16.625 20 14.7333 20 12.5C20 10.2667 19.225 8.375 17.675 6.825C16.125 5.275 14.2333 4.5 12 4.5C9.76667 4.5 7.875 5.275 6.325 6.825C4.775 8.375 4 10.2667 4 12.5C4 14.7333 4.775 16.625 6.325 18.175C7.875 19.725 9.76667 20.5 12 20.5Z" fill="#071726"/>
</svg>
