<svg width="24" height="24" viewBox="0 0 24 24" fill="none" xmlns="http://www.w3.org/2000/svg">
<path d="M7.99984 6.49989L5.49975 3.99974C5.49975 3.99974 9.62975 3.85809 11 4.99998C13.6516 7.20962 12.4998 9.99981 12.4998 9.99981C9.47727 12.2667 10.5476 12.6376 9 13.5C3.74627 13.5 3.49988 8.68746 3.49988 6.5001L5.99984 8.49989L7.99984 6.49989Z" stroke="#071726" stroke-width="1.5"/>
<path fill-rule="evenodd" clip-rule="evenodd" d="M21 16C21 19.3139 18.3139 22 15 22C11.6861 22 9 19.3139 9 16C9 12.6861 11.6861 10 15 10C18.3139 10 21 12.6861 21 16Z" stroke="#071726" stroke-width="1.5" stroke-linecap="round" stroke-linejoin="round"/>
<path d="M17 18L15 16.4153V13" stroke="#071726" stroke-width="1.5" stroke-linecap="round" stroke-linejoin="round"/>
</svg>
