<svg width="20" height="20" viewBox="0 0 20 20" fill="none" xmlns="http://www.w3.org/2000/svg">
<path d="M15.0002 11.6667L16.227 13.0979C17.4276 14.4987 18.0279 15.1991 18.0426 15.792C18.0553 16.3074 17.8289 16.7996 17.4293 17.1253C16.9696 17.5 16.0471 17.5 14.2023 17.5H5.7981C3.95314 17.5 3.03065 17.5 2.57086 17.1253C2.17127 16.7996 1.94487 16.3073 1.95766 15.792C1.97238 15.199 2.57274 14.4986 3.77346 13.0978L5.00024 11.6667M15.8333 8.33333C15.8333 11.555 13.2217 14.1667 10 14.1667C6.77834 14.1667 4.16667 11.555 4.16667 8.33333C4.16667 5.11167 6.77834 2.5 10 2.5C13.2217 2.5 15.8333 5.11167 15.8333 8.33333ZM12.5 8.33333C12.5 9.71405 11.3807 10.8333 10 10.8333C8.61929 10.8333 7.5 9.71405 7.5 8.33333C7.5 6.95262 8.61929 5.83333 10 5.83333C11.3807 5.83333 12.5 6.95262 12.5 8.33333Z" stroke="#071726" stroke-width="1.5" stroke-linecap="round" stroke-linejoin="round"/>
</svg>
