<svg width="20" height="20" viewBox="0 0 20 20" fill="none" xmlns="http://www.w3.org/2000/svg">
<path d="M8.30225 16.0231C8.71884 15.9349 11.2577 15.9349 11.6743 16.0231C12.0304 16.1053 12.4155 16.2978 12.4155 16.7174C12.3948 17.1169 12.1602 17.471 11.8364 17.6959C11.4165 18.0232 10.9238 18.2306 10.4087 18.3053C10.1238 18.3422 9.84381 18.3431 9.56885 18.3053C9.05287 18.2306 8.56019 18.0231 8.14111 17.6949C7.81647 17.4709 7.58177 17.1169 7.56104 16.7174C7.56104 16.2978 7.94617 16.1053 8.30225 16.0231ZM10.0376 1.66663C11.771 1.66665 13.5414 2.48944 14.5933 3.85413C15.2757 4.73286 15.5894 5.61053 15.5894 6.97522V7.33069C15.5894 8.37697 15.8655 8.99397 16.4741 9.70471C16.9353 10.2283 17.0834 10.9003 17.0835 11.6295C17.0835 12.358 16.8443 13.0504 16.3647 13.6119C15.737 14.285 14.8513 14.7139 13.9478 14.7887C12.6384 14.9003 11.328 14.9947 10.0005 14.9948C8.6721 14.9948 7.36257 14.9381 6.05322 14.7887C5.1489 14.714 4.26318 14.2849 3.63623 13.6119C3.15669 13.0504 2.9165 12.358 2.9165 11.6295C2.91657 10.9004 3.06466 10.2283 3.5249 9.70471C4.1526 8.99393 4.41155 8.37702 4.41162 7.33069V6.97522C4.41162 5.57359 4.76124 4.65661 5.48096 3.7594C6.55104 2.45117 8.26654 1.66663 9.96338 1.66663H10.0376Z" fill="white"/>
</svg>
