<svg width="20" height="20" viewBox="0 0 20 20" fill="none" xmlns="http://www.w3.org/2000/svg">
<path d="M6.6001 11.2242C7.77498 11.2244 8.71631 12.1758 8.71631 13.359V16.1998C8.71624 17.3747 7.77494 18.3325 6.6001 18.3326H3.78271C2.6163 18.3324 1.66657 17.3746 1.6665 16.1998V13.359C1.6665 12.1758 2.61626 11.2245 3.78271 11.2242H6.6001ZM16.2163 11.2242C17.383 11.2242 18.3335 12.1757 18.3335 13.359V16.1998C18.3334 17.3748 17.3829 18.3326 16.2163 18.3326H13.3999C12.225 18.3326 11.2838 17.3748 11.2837 16.1998V13.359C11.2837 12.1757 12.2249 11.2243 13.3999 11.2242H16.2163ZM6.6001 1.66663C7.77485 1.66677 8.71611 2.62484 8.71631 3.80042V6.64124C8.71631 7.82448 7.77498 8.77488 6.6001 8.77502H3.78271C2.61626 8.77478 1.6665 7.82441 1.6665 6.64124V3.80042C1.66671 2.62491 2.61638 1.66688 3.78271 1.66663H6.6001ZM16.2163 1.66663C17.3829 1.66663 18.3333 2.62475 18.3335 3.80042V6.64124C18.3335 7.82457 17.383 8.77502 16.2163 8.77502H13.3999C12.2249 8.77501 11.2837 7.82456 11.2837 6.64124V3.80042C11.2839 2.62476 12.225 1.66664 13.3999 1.66663H16.2163Z" fill="white"/>
</svg>
