<svg width="20" height="20" viewBox="0 0 20 20" fill="none" xmlns="http://www.w3.org/2000/svg">
<path d="M13.9296 5.16401C13.8035 4.42013 13.5106 3.71443 13.073 3.09982C12.6353 2.4852 12.0642 1.9776 11.4025 1.61505C10.7409 1.2525 10.0057 1.04441 9.25213 1.00636C8.49859 0.968314 7.7462 1.1013 7.05135 1.39536C6.3565 1.68941 5.73721 2.13691 5.23988 2.70432C4.74256 3.27172 4.3801 3.94433 4.17966 4.67173C3.97922 5.39912 3.946 6.16245 4.0825 6.90451C4.21899 7.64657 4.52165 8.34812 4.96781 8.95659L6.13714 8.09918C5.82037 7.66717 5.60548 7.16907 5.50857 6.6422C5.41166 6.11534 5.43525 5.57338 5.57756 5.05693C5.71987 4.54047 5.97722 4.06292 6.33032 3.66006C6.68342 3.25721 7.12311 2.93948 7.61646 2.7307C8.1098 2.52192 8.644 2.4275 9.17902 2.45452C9.71404 2.48153 10.236 2.62928 10.7058 2.88669C11.1756 3.1441 11.5811 3.50449 11.8918 3.94087C12.2025 4.37725 12.4105 4.87829 12.5 5.40645L13.9296 5.16401Z" fill="white"/>
<path d="M2.46447 10.4645C1.93842 10.9905 1.5364 11.6273 1.28769 12.3284C1.03898 13.0296 0.949864 13.7774 1.02683 14.5173C1.1038 15.2572 1.34491 15.9707 1.7326 16.6056C2.12028 17.2406 2.64476 17.781 3.26781 18.1875C3.89085 18.594 4.59676 18.8564 5.33407 18.9555C6.07137 19.0545 6.8215 18.9878 7.52976 18.7602C8.23802 18.5326 8.88657 18.1498 9.42812 17.6398C9.96967 17.1297 10.3906 16.5052 10.6602 15.8119L9.30872 15.2864C9.11731 15.7787 8.81847 16.2221 8.43397 16.5842C8.04946 16.9464 7.589 17.2182 7.08613 17.3798C6.58326 17.5414 6.05068 17.5887 5.52719 17.5184C5.0037 17.448 4.50251 17.2617 4.06014 16.9731C3.61778 16.6845 3.2454 16.3008 2.97014 15.85C2.69489 15.3992 2.5237 14.8926 2.46905 14.3673C2.4144 13.8419 2.47768 13.311 2.65426 12.8132C2.83084 12.3154 3.11628 11.8633 3.48977 11.4898L2.46447 10.4645Z" fill="white"/>
<path d="M11.8083 17.4941C12.4923 17.8276 13.2433 18.0006 14.0042 18C14.7651 17.9994 15.5158 17.8251 16.1992 17.4904C16.8825 17.1557 17.4805 16.6695 17.9475 16.0687C18.4145 15.468 18.7383 14.7686 18.8941 14.0238C19.0499 13.279 19.0336 12.5085 18.8466 11.7709C18.6595 11.0334 18.3066 10.3482 17.8147 9.76769C17.3228 9.18716 16.7049 8.72655 16.0081 8.42096C15.3112 8.11537 14.5538 7.97285 13.7936 8.00426L13.8534 9.45303C14.3932 9.43072 14.931 9.53191 15.4257 9.74888C15.9205 9.96585 16.3592 10.2929 16.7085 10.7051C17.0577 11.1172 17.3083 11.6037 17.4411 12.1274C17.5739 12.651 17.5854 13.1981 17.4748 13.7269C17.3642 14.2557 17.1343 14.7523 16.8027 15.1788C16.4712 15.6053 16.0466 15.9506 15.5614 16.1882C15.0762 16.4258 14.5432 16.5495 14.003 16.55C13.4627 16.5505 12.9295 16.4276 12.4439 16.1908L11.8083 17.4941Z" fill="white"/>
<ellipse cx="12.6018" cy="8.60183" rx="1.60183" ry="1.60183" fill="white" stroke="white" stroke-width="1.5" stroke-linecap="round" stroke-linejoin="round"/>
<ellipse cx="10.6018" cy="13.6018" rx="1.60183" ry="1.60183" fill="white" stroke="white" stroke-width="1.5" stroke-linecap="round" stroke-linejoin="round"/>
<ellipse cx="6.60183" cy="9.60183" rx="1.60183" ry="1.60183" fill="white" stroke="white" stroke-width="1.5" stroke-linecap="round" stroke-linejoin="round"/>
</svg>
