<svg width="296" height="108" viewBox="0 0 296 108" fill="none" xmlns="http://www.w3.org/2000/svg">
<path fill-rule="evenodd" clip-rule="evenodd" d="M53.9997 33.9998C42.9542 33.9998 34 42.954 34 53.9995C34 65.045 42.9542 73.9992 53.9997 73.9992C65.0452 73.9992 73.9994 65.045 73.9994 53.9995C73.9994 42.954 65.0452 33.9998 53.9997 33.9998ZM54.7889 44.6682V44.6682L53.9977 50.9977H59.3102C60.9861 50.9977 61.824 50.9977 62.2739 51.3452C62.6657 51.6477 62.9026 52.1088 62.9206 52.6034C62.9412 53.1716 62.4535 53.8529 61.4779 55.2155L55.1317 64.0801C54.4117 65.0857 54.0518 65.5886 53.776 65.632C53.5382 65.6694 53.2988 65.5757 53.1495 65.387C52.9764 65.168 53.0531 64.5543 53.2065 63.327L53.9977 56.9976H48.6851C47.0093 56.9976 46.1714 56.9976 45.7214 56.6501C45.3297 56.3475 45.0927 55.8865 45.0748 55.3919C45.0541 54.8237 45.5419 54.1424 46.5174 52.7798L52.8636 43.9152C53.5836 42.9095 53.9436 42.4067 54.2194 42.3633C54.4571 42.3259 54.6966 42.4195 54.8458 42.6083C55.019 42.8273 54.9423 43.4409 54.7889 44.6682Z" fill="white"/>
<rect width="6.54589" height="6.54589" rx="3.27295" transform="matrix(-1 0 0 1 57.2703 18)" fill="white"/>
<rect width="6.54589" height="6.54589" rx="3.27295" transform="matrix(-1 0 0 1 57.2703 83.4541)" fill="white"/>
<rect width="6.54589" height="6.54589" rx="3.27295" transform="matrix(-1 0 0 1 34.3604 73.6359)" fill="white"/>
<rect width="6.54589" height="6.54589" rx="3.27295" transform="matrix(-1 0 0 1 80.181 73.6359)" fill="white"/>
<rect width="6.54589" height="6.54589" rx="3.27295" transform="matrix(-1 0 0 1 80.181 27.8182)" fill="white"/>
<rect width="6.54589" height="6.54589" rx="3.27295" transform="matrix(-1 0 0 1 34.3604 27.8182)" fill="white"/>
<rect width="6.54589" height="6.54589" rx="3.27295" transform="matrix(-1 0 0 1 24.546 50.728)" fill="white"/>
<rect width="6.54589" height="6.54589" rx="3.27295" transform="matrix(-1 0 0 1 89.9963 50.728)" fill="white"/>
<path d="M53.9976 21.2715L31.0889 31.0895L21.2709 53.9982L31.0889 76.907L53.9976 86.725L76.9064 76.907L86.7244 53.9982L76.9064 31.0895L53.9976 21.2715Z" stroke="white" stroke-width="3.33244" stroke-linecap="round"/>
<path d="M53.9967 24.0018V30.0017M75.9964 32.0017L71.9964 36.0016M85.9962 54.0014H77.9963M75.9964 76.001L71.9964 72.0011M53.9967 86.0009V78.001M31.997 76.001L37.9969 72.0011M21.9972 54.0014H29.9971M31.997 32.0017L35.997 36.0016" stroke="white" stroke-width="3.33244" stroke-linecap="round"/>
<path fill-rule="evenodd" clip-rule="evenodd" d="M53.9997 33.9997C42.9542 33.9997 34 42.9539 34 53.9994C34 65.0449 42.9542 73.9991 53.9997 73.9991C65.0452 73.9991 73.9994 65.0449 73.9994 53.9994C73.9994 42.9539 65.0452 33.9997 53.9997 33.9997ZM54.7889 44.668V44.668L53.9977 50.9975H59.3102C60.9861 50.9975 61.824 50.9975 62.2739 51.345C62.6657 51.6475 62.9026 52.1086 62.9206 52.6032C62.9412 53.1713 62.4535 53.8527 61.4779 55.2153L55.1317 64.0798L55.1317 64.0799C54.4117 65.0855 54.0518 65.5884 53.776 65.6318C53.5382 65.6692 53.2988 65.5755 53.1495 65.3868C52.9764 65.1678 53.0531 64.5541 53.2065 63.3268L53.9977 56.9974H48.6851C47.0093 56.9974 46.1714 56.9974 45.7214 56.6499C45.3297 56.3473 45.0927 55.8863 45.0748 55.3916C45.0541 54.8235 45.5419 54.1422 46.5174 52.7795L52.8636 43.915L52.8636 43.915C53.5836 42.9093 53.9436 42.4065 54.2194 42.3631C54.4571 42.3257 54.6966 42.4193 54.8458 42.6081C55.019 42.8271 54.9423 43.4407 54.7889 44.668Z" fill="url(#paint0_linear_964_40721)"/>
<path d="M257.633 45.1084V82.9014H249.196V39.0146H257.018L257.633 45.1084ZM277.701 54.5127V55.1279C277.701 57.4326 277.428 59.5713 276.881 61.5439C276.354 63.5166 275.573 65.2354 274.537 66.7002C273.502 68.1455 272.213 69.2783 270.67 70.0986C269.147 70.8994 267.389 71.2998 265.397 71.2998C263.463 71.2998 261.783 70.9092 260.358 70.1279C258.932 69.3467 257.731 68.2529 256.754 66.8467C255.797 65.4209 255.026 63.7705 254.44 61.8955C253.854 60.0205 253.405 58.0088 253.092 55.8604V54.249C253.405 51.9443 253.854 49.835 254.44 47.9209C255.026 45.9873 255.797 44.3174 256.754 42.9111C257.731 41.4854 258.922 40.3818 260.328 39.6006C261.754 38.8193 263.424 38.4287 265.338 38.4287C267.35 38.4287 269.117 38.8096 270.641 39.5713C272.184 40.333 273.473 41.4268 274.508 42.8525C275.563 44.2783 276.354 45.9775 276.881 47.9502C277.428 49.9229 277.701 52.1104 277.701 54.5127ZM269.235 55.1279V54.5127C269.235 53.165 269.117 51.9248 268.883 50.792C268.668 49.6396 268.317 48.6338 267.828 47.7744C267.36 46.915 266.735 46.251 265.953 45.7822C265.192 45.2939 264.264 45.0498 263.17 45.0498C262.018 45.0498 261.031 45.2354 260.211 45.6064C259.41 45.9775 258.756 46.5146 258.248 47.2178C257.74 47.9209 257.36 48.7607 257.106 49.7373C256.852 50.7139 256.696 51.8174 256.637 53.0479V57.1201C256.735 58.5654 257.008 59.8643 257.457 61.0166C257.906 62.1494 258.6 63.0479 259.537 63.7119C260.475 64.376 261.705 64.708 263.229 64.708C264.342 64.708 265.28 64.4639 266.041 63.9756C266.803 63.4678 267.418 62.7744 267.887 61.8955C268.375 61.0166 268.717 60.001 268.912 58.8486C269.127 57.6963 269.235 56.4561 269.235 55.1279Z" fill="white"/>
<path d="M233.727 28.0576H242.487V56.2412C242.487 59.5225 241.783 62.2861 240.377 64.5322C238.99 66.7783 237.067 68.4678 234.606 69.6006C232.164 70.7334 229.352 71.2998 226.168 71.2998C222.985 71.2998 220.153 70.7334 217.672 69.6006C215.211 68.4678 213.278 66.7783 211.871 64.5322C210.485 62.2861 209.791 59.5225 209.791 56.2412V28.0576H218.58V56.2412C218.58 58.1553 218.883 59.7178 219.489 60.9287C220.094 62.1396 220.963 63.0283 222.096 63.5947C223.248 64.1611 224.606 64.4443 226.168 64.4443C227.77 64.4443 229.127 64.1611 230.24 63.5947C231.373 63.0283 232.233 62.1396 232.819 60.9287C233.424 59.7178 233.727 58.1553 233.727 56.2412V28.0576Z" fill="white"/>
<path d="M204.84 39.0146V44.9912H186.383V39.0146H204.84ZM190.953 31.1924H199.391V61.1631C199.391 62.0811 199.508 62.7842 199.742 63.2725C199.996 63.7607 200.367 64.1025 200.856 64.2979C201.344 64.4736 201.959 64.5615 202.701 64.5615C203.229 64.5615 203.698 64.542 204.108 64.5029C204.537 64.4443 204.899 64.3857 205.192 64.3271L205.221 70.5381C204.498 70.7725 203.717 70.958 202.877 71.0947C202.037 71.2314 201.11 71.2998 200.094 71.2998C198.239 71.2998 196.617 70.9971 195.231 70.3916C193.864 69.7666 192.809 68.7705 192.067 67.4033C191.324 66.0361 190.953 64.2393 190.953 62.0127V31.1924Z" fill="white"/>
<path d="M178.561 70.7139H170.065V36.2021C170.065 33.7998 170.533 31.7783 171.471 30.1377C172.428 28.4775 173.766 27.2275 175.485 26.3877C177.223 25.5283 179.283 25.0986 181.666 25.0986C182.448 25.0986 183.199 25.1572 183.922 25.2744C184.645 25.3721 185.348 25.499 186.031 25.6553L185.944 32.0127C185.573 31.915 185.182 31.8467 184.772 31.8076C184.362 31.7686 183.883 31.749 183.336 31.749C182.321 31.749 181.451 31.9248 180.729 32.2764C180.026 32.6084 179.489 33.1064 179.117 33.7705C178.746 34.4346 178.561 35.2451 178.561 36.2021V70.7139ZM184.889 39.0146V44.9912H165.348V39.0146H184.889Z" fill="white"/>
<path d="M160.836 39.0146V70.7139H152.369V39.0146H160.836ZM151.842 30.7529C151.842 29.5225 152.272 28.5068 153.131 27.7061C153.99 26.9053 155.143 26.5049 156.588 26.5049C158.014 26.5049 159.156 26.9053 160.016 27.7061C160.895 28.5068 161.334 29.5225 161.334 30.7529C161.334 31.9834 160.895 32.999 160.016 33.7998C159.156 34.6006 158.014 35.001 156.588 35.001C155.143 35.001 153.99 34.6006 153.131 33.7998C152.272 32.999 151.842 31.9834 151.842 30.7529Z" fill="white"/>
<path d="M147.418 63.8584V70.7139H125.944V63.8584H147.418ZM128.785 28.0576V70.7139H119.996V28.0576H128.785Z" fill="white"/>
<defs>
<linearGradient id="paint0_linear_964_40721" x1="53.9997" y1="33.9997" x2="53.9997" y2="73.9991" gradientUnits="userSpaceOnUse">
<stop stop-color="#F1DC63"/>
<stop offset="1" stop-color="white"/>
</linearGradient>
</defs>
</svg>
