<svg width="20" height="20" viewBox="0 0 20 20" fill="none" xmlns="http://www.w3.org/2000/svg">
<path d="M12.8745 3.15002C12.8412 3.3583 12.8247 3.56675 12.8247 3.77502C12.8247 5.65002 14.3418 7.16565 16.2085 7.16565C16.4166 7.16562 16.6166 7.14231 16.8247 7.10901V13.8326C16.8247 16.6585 15.158 18.3336 12.3247 18.3336H6.16748C3.33331 18.3336 1.6665 16.6585 1.6665 13.8326V7.66663C1.6666 4.83344 3.3334 3.15002 6.16748 3.15002H12.8745ZM13.0425 8.21643C12.8167 8.19144 12.5927 8.29198 12.4585 8.47522L10.4419 11.0836L8.1333 9.26721C7.99163 9.15888 7.82438 9.11592 7.65771 9.13342C7.49216 9.1585 7.34244 9.24937 7.2417 9.38245L4.77588 12.5914L4.7251 12.6666C4.58343 12.9325 4.6499 13.2745 4.8999 13.4586C5.01642 13.5335 5.14127 13.5835 5.28271 13.5836C5.47521 13.592 5.65824 13.4911 5.7749 13.3336L7.8667 10.6412L10.2417 12.4254L10.3169 12.4742C10.5835 12.6157 10.9163 12.5501 11.1079 12.2994L13.5161 9.19202L13.4829 9.20862C13.6162 9.02535 13.6418 8.79189 13.5503 8.58362C13.4595 8.37532 13.2583 8.23314 13.0425 8.21643ZM16.3247 1.66663C17.433 1.66663 18.3335 2.56708 18.3335 3.67542C18.3333 4.78354 17.4329 5.68323 16.3247 5.68323C15.2166 5.68311 14.3171 4.78347 14.3169 3.67542C14.3169 2.56715 15.2165 1.66674 16.3247 1.66663Z" fill="white"/>
</svg>
