<svg width="20" height="20" viewBox="0 0 20 20" fill="none" xmlns="http://www.w3.org/2000/svg">
<path d="M16.2841 10.2317C16.6413 10.4413 17.1009 10.3216 17.3105 9.96433C17.5201 9.60707 17.4004 9.14753 17.0431 8.93792L16.2841 10.2317ZM6.20276 3.4473L5.81569 4.08976L5.82323 4.09418L6.20276 3.4473ZM5.3534 3.46667L4.93748 2.84256L4.93748 2.84256L5.3534 3.46667ZM5.00859 4.24313L4.2667 4.35308C4.27403 4.40258 4.2863 4.45122 4.30333 4.49828L5.00859 4.24313ZM6.23583 9.83995C6.37674 10.2295 6.80674 10.431 7.19624 10.2901C7.58575 10.1491 7.78727 9.71915 7.64636 9.32965L6.23583 9.83995ZM17.0431 10.2317C17.4004 10.0221 17.5201 9.56253 17.3105 9.20526C17.1009 8.848 16.6413 8.72831 16.2841 8.93792L17.0431 10.2317ZM6.20276 15.7223L5.8232 15.0754L5.81572 15.0799L6.20276 15.7223ZM5.3534 15.7029L4.93747 16.327L4.93748 16.327L5.3534 15.7029ZM5.00859 14.9265L4.30333 14.6713C4.2863 14.7184 4.27403 14.767 4.2667 14.8165L5.00859 14.9265ZM7.64636 9.83995C7.78727 9.45044 7.58575 9.02045 7.19624 8.87953C6.80674 8.73862 6.37674 8.94014 6.23583 9.32965L7.64636 9.83995ZM16.6636 10.3348C17.0778 10.3348 17.4136 9.99901 17.4136 9.5848C17.4136 9.17058 17.0778 8.8348 16.6636 8.8348V10.3348ZM6.94109 8.8348C6.52688 8.8348 6.19109 9.17058 6.19109 9.5848C6.19109 9.99901 6.52688 10.3348 6.94109 10.3348V8.8348ZM17.0431 8.93792L6.58229 2.80042L5.82323 4.09418L16.2841 10.2317L17.0431 8.93792ZM6.5898 2.80488C6.07815 2.49662 5.43455 2.5113 4.93748 2.84256L5.76932 4.09077C5.78328 4.08147 5.80135 4.08106 5.81572 4.08971L6.5898 2.80488ZM4.93748 2.84256C4.4404 3.17383 4.17913 3.76219 4.2667 4.35308L5.75049 4.13318C5.74803 4.11659 5.75537 4.10007 5.76932 4.09077L4.93748 2.84256ZM4.30333 4.49828L6.23583 9.83995L7.64636 9.32965L5.71386 3.98798L4.30333 4.49828ZM16.2841 8.93792L5.82323 15.0754L6.58229 16.3692L17.0431 10.2317L16.2841 8.93792ZM5.81572 15.0799C5.80135 15.0885 5.78328 15.0881 5.76932 15.0788L4.93748 16.327C5.43455 16.6583 6.07814 16.673 6.5898 16.3647L5.81572 15.0799ZM5.76932 15.0788C5.75537 15.0695 5.74803 15.053 5.75049 15.0364L4.2667 14.8165C4.17913 15.4074 4.4404 15.9958 4.93747 16.327L5.76932 15.0788ZM5.71386 15.1816L7.64636 9.83995L6.23583 9.32965L4.30333 14.6713L5.71386 15.1816ZM16.6636 8.8348H6.94109V10.3348H16.6636V8.8348Z" fill="white"/>
</svg>
