<svg width="20" height="20" viewBox="0 0 20 20" fill="none" xmlns="http://www.w3.org/2000/svg">
<path d="M10.5977 1.66675C11.2277 1.66686 11.7982 2.01655 12.1133 2.53296C12.2666 2.78296 12.3684 3.09175 12.3428 3.41675C12.3258 3.66674 12.4029 3.91682 12.5391 4.15015C12.9735 4.85845 13.9362 5.12533 14.6856 4.72534C15.5286 4.24218 16.5927 4.5334 17.0782 5.35815L17.6485 6.34155C18.1424 7.16655 17.8702 8.22495 17.0186 8.69995C16.2949 9.12489 16.0396 10.0663 16.4737 10.783C16.61 11.008 16.7636 11.2005 17.002 11.3171C17.2999 11.4755 17.5297 11.7255 17.6915 11.9753C18.0064 12.4919 17.9813 13.1251 17.6749 13.6833L17.0782 14.6833C16.7631 15.2166 16.1759 15.5504 15.5713 15.5505C15.2733 15.5505 14.9405 15.4672 14.668 15.3005C14.4467 15.1589 14.1914 15.1082 13.919 15.1082C13.076 15.1082 12.3685 15.7999 12.3428 16.6248C12.3428 17.5831 11.5595 18.3337 10.5801 18.3337H9.42193C8.43415 18.3336 7.65045 17.583 7.65045 16.6248C7.63324 15.8 6.92693 15.1083 6.08404 15.1082C5.803 15.1082 5.54695 15.1589 5.33404 15.3005C5.06162 15.467 4.72109 15.5505 4.4317 15.5505C3.81857 15.5505 3.23119 15.2166 2.91607 14.6833L2.32818 13.6833C2.01316 13.1418 1.99575 12.4919 2.31061 11.9753C2.44683 11.7254 2.70279 11.4755 2.99225 11.3171C3.2307 11.2005 3.38458 11.008 3.52936 10.783C3.95468 10.0664 3.69921 9.12489 2.97564 8.69995C2.13253 8.22495 1.85936 7.16655 2.34479 6.34155L2.91607 5.35815C3.41011 4.53342 4.46593 4.24208 5.31744 4.72534C6.05833 5.12518 7.02085 4.85841 7.45514 4.15015C7.59138 3.91683 7.66748 3.66673 7.65045 3.41675C7.63342 3.09175 7.7279 2.78295 7.88971 2.53296C8.20487 2.01662 8.7751 1.68343 9.39654 1.66675H10.5977ZM10.0098 7.65015C8.67276 7.65015 7.59088 8.70021 7.59088 10.0085C7.59095 11.3168 8.67281 12.3582 10.0098 12.3582C11.3468 12.3581 12.4023 11.3168 12.4024 10.0085C12.4024 8.70022 11.3469 7.65016 10.0098 7.65015Z" fill="white"/>
</svg>
