<svg width="20" height="20" viewBox="0 0 20 20" fill="none" xmlns="http://www.w3.org/2000/svg">
<path fill-rule="evenodd" clip-rule="evenodd" d="M10.0004 11C6.76903 11 4.00954 13.8183 4.00954 14.4875C4.00954 17.2782 3.49626 18 10.0004 18C16.5045 18 15.9904 17.302 15.9904 14.5125C15.9904 13.8183 13.2492 11 10.0004 11Z" fill="white" stroke="white" stroke-width="1.5" stroke-linecap="round" stroke-linejoin="round"/>
<path d="M6.5 10.5L10 14.5L13.5 10.5" stroke="#071726" stroke-width="1.5"/>
<path fill-rule="evenodd" clip-rule="evenodd" d="M10.0004 9C12.2095 9 14 7.20868 14 4.99959C14 2.79049 12.2095 1 10.0004 1C7.79133 1 6.00002 2.79049 6.00002 4.99959C5.99256 7.20122 7.77144 8.99254 9.97224 9H10.0004Z" fill="white" stroke="white" stroke-width="1.42857" stroke-linecap="round" stroke-linejoin="round"/>
</svg>
